<svg width="1660" height="227" viewBox="0 0 1660 227" fill="none" xmlns="http://www.w3.org/2000/svg">
<path d="M661.119 0L675.844 58.5H646.393L661.119 0Z" fill="#239614"/>
<path d="M700.626 10L711.453 52.75H689.799L700.626 10Z" fill="#239614"/>
<path d="M1072.2 122L1082.59 163.25H1061.8L1072.2 122Z" fill="#239614"/>
<path d="M1112.2 107L1126.93 165.5H1097.48L1112.2 107Z" fill="#239614"/>
<path d="M1406.26 83L1420.98 141.5H1391.53L1406.26 83Z" fill="#239614"/>
<path d="M1446.27 106L1458.39 151H1434.14L1446.27 106Z" fill="#239614"/>
<path d="M157.524 116L170.084 166.25H144.964L157.524 116Z" fill="#239614"/>
<path d="M200.032 105L214.757 163.5H185.307L200.032 105Z" fill="#239614"/>
<path d="M658.118 54H663.119V72H658.118V54Z" fill="#239614"/>
<path d="M197.031 158H202.032V176H197.031V158Z" fill="#239614"/>
<path d="M155.023 162H160.024V180H155.023V162Z" fill="#239614"/>
<path d="M698.125 49H703.126V67H698.125V49Z" fill="#239614"/>
<path d="M1069.2 159H1074.2V177H1069.2V159Z" fill="#239614"/>
<path d="M1109.2 163H1114.2V181H1109.2V163Z" fill="#239614"/>
<path d="M1444.27 145H1449.27V163H1444.27V145Z" fill="#239614"/>
<path d="M1403.26 138H1408.26V156H1403.26V138Z" fill="#239614"/>
<path d="M215 172.5C160.344 181.581 117.549 180.693 65.9997 201L0 227H1660C1660 227 1607.36 202.33 1572 191C1480 161.523 1418.47 147.975 1322 153C1243.51 157.088 1208.55 179.424 1130 177C1023.1 173.701 966.183 157.397 868 115C780 77 714.962 52.1958 618 77C521.038 101.804 467.449 160.378 370 165C302.615 168.196 281.548 161.443 215 172.5Z" fill="#239614"/>
</svg>
