<?xml version="1.0" standalone="no"?>
<!DOCTYPE svg PUBLIC "-//W3C//DTD SVG 20010904//EN"
 "http://www.w3.org/TR/2001/REC-SVG-20010904/DTD/svg10.dtd">
<svg version="1.0" xmlns="http://www.w3.org/2000/svg"
 width="1920.000000pt" height="385.000000pt" viewBox="0 0 1920.000000 385.000000"
 preserveAspectRatio="xMidYMid meet">
<metadata>
Created by potrace 1.16, written by Peter Selinger 2001-2019
</metadata>
<g transform="translate(0.000000,385.000000) scale(0.100000,-0.100000)"
fill="#000000" stroke="none">
<path d="M14835 3638 c-2 -7 -27 -168 -55 -358 -28 -190 -63 -411 -77 -493
-32 -179 -34 -176 95 -177 l82 0 0 -44 0 -44 -42 -6 c-24 -3 -87 -5 -140 -5
-54 0 -105 -4 -115 -10 -10 -5 -66 -11 -126 -13 l-107 -3 0 57 0 57 98 3 97 3
-3 45 c-2 31 -261 936 -276 967 -1 1 -14 3 -31 5 l-29 3 -62 -405 c-34 -223
-70 -449 -79 -503 -18 -95 -18 -98 1 -112 13 -10 45 -14 102 -15 l82 0 0 -60
c0 -48 -3 -60 -16 -60 -8 0 -13 -4 -9 -9 3 -6 -36 -12 -92 -15 -54 -2 -129 -9
-168 -14 -38 -6 -108 -15 -153 -22 -46 -6 -85 -10 -87 -8 -1 2 -5 13 -9 24 -6
19 -2 22 36 28 123 18 118 16 118 45 0 14 -7 39 -15 55 -8 15 -15 34 -15 40 0
7 -9 22 -21 34 -11 12 -17 27 -14 32 3 6 1 10 -4 10 -6 0 -11 7 -11 16 0 9 -9
27 -20 41 -11 14 -20 34 -20 44 0 10 -4 20 -9 24 -6 3 -20 27 -32 53 -12 26
-28 58 -36 72 -8 14 -17 33 -20 43 -3 9 -10 17 -15 17 -5 0 -7 4 -4 9 3 4 -6
23 -19 41 -13 18 -22 37 -19 42 3 4 -4 20 -15 34 -11 14 -17 32 -15 39 5 11
-2 13 -33 8 -21 -3 -39 -6 -40 -7 -4 -3 -22 -211 -29 -321 -3 -60 -8 -132 -10
-160 -2 -27 -6 -86 -9 -130 -3 -44 -8 -87 -10 -96 -7 -22 34 -48 60 -39 11 4
40 10 65 13 42 6 46 4 46 -16 0 -34 -15 -42 -86 -45 -36 -2 -66 -8 -68 -13 -2
-5 -21 -9 -43 -9 -21 0 -39 -4 -39 -8 0 -5 -8 -9 -17 -9 -62 1 -93 -4 -88 -13
4 -6 -8 -10 -29 -10 -20 0 -36 -3 -36 -7 0 -5 -30 -9 -67 -10 -36 -1 -71 -7
-77 -13 -5 -5 -31 -10 -57 -10 -26 0 -51 -4 -54 -10 -3 -5 -19 -10 -36 -10
-16 0 -29 -4 -29 -10 0 -5 -13 -10 -30 -10 -16 0 -30 -4 -30 -8 0 -5 -22 -9
-49 -9 -26 0 -66 -6 -87 -13 -21 -7 -46 -15 -54 -18 -8 -2 -30 -6 -49 -8 -34
-3 -91 -25 -91 -34 0 -3 -25 -6 -56 -6 -30 -1 -60 -6 -67 -13 -6 -6 -19 -11
-29 -11 -10 0 -18 -4 -18 -10 0 -5 -25 -10 -55 -10 -30 0 -55 -4 -55 -10 0 -5
-11 -10 -25 -10 -14 0 -25 -3 -25 -7 0 -5 -21 -9 -47 -10 -26 -1 -49 -6 -51
-12 -2 -6 -17 -11 -33 -11 -16 0 -29 -4 -29 -9 0 -5 -21 -9 -47 -9 -26 0 -49
-5 -51 -11 -2 -6 -10 -11 -18 -11 -8 0 -14 -4 -14 -8 0 -5 -23 -8 -52 -8 -31
0 -53 -5 -56 -12 -2 -7 -15 -12 -28 -12 -13 0 -24 -4 -24 -8 0 -5 -23 -9 -51
-10 -38 -1 -55 -6 -69 -21 -19 -23 -36 -27 -42 -10 -4 12 -88 -10 -88 -23 0
-5 -7 -8 -15 -8 -8 0 -15 -4 -15 -8 0 -5 -26 -9 -57 -10 -32 -1 -59 -6 -61
-12 -2 -5 -10 -10 -18 -10 -8 0 -14 -3 -14 -7 0 -5 -20 -8 -45 -9 -25 -1 -51
-6 -57 -12 -7 -7 -20 -12 -30 -12 -10 0 -18 -4 -18 -10 0 -5 -22 -10 -50 -10
-27 0 -50 -4 -50 -10 0 -5 -7 -10 -15 -10 -8 0 -15 -4 -15 -9 0 -6 -17 -9 -37
-8 -39 1 -103 -21 -103 -36 0 -5 -12 -8 -27 -7 -68 5 -92 0 -98 -19 -5 -16
-14 -19 -52 -18 -30 1 -48 -3 -50 -10 -3 -7 -16 -13 -29 -13 -13 0 -24 -5 -24
-11 0 -6 -7 -8 -16 -5 -29 11 -93 -5 -99 -25 -6 -19 -39 -26 -49 -10 -6 9 -69
-8 -82 -22 -4 -4 -24 -7 -45 -7 -21 0 -41 -5 -44 -10 -3 -6 -17 -10 -31 -10
-13 0 -24 -4 -24 -10 0 -5 -7 -10 -16 -10 -8 0 -12 -5 -8 -11 4 -7 -5 -10 -27
-8 -52 3 -93 0 -86 -8 11 -10 -43 -33 -78 -33 -18 0 -44 -9 -58 -20 -14 -11
-38 -20 -54 -20 -16 0 -46 -9 -68 -20 -22 -11 -56 -20 -76 -20 -22 0 -47 -8
-63 -21 -17 -13 -35 -19 -48 -16 -12 3 -41 -3 -64 -14 -24 -10 -51 -19 -60
-19 -19 0 -80 -18 -106 -31 -27 -14 -55 -11 -55 6 0 8 5 16 11 17 16 2 27 4
71 13 22 5 45 9 50 10 23 1 0 119 -31 155 -7 8 -13 20 -15 25 -2 14 -8 32 -16
53 -3 9 -7 19 -7 22 -1 3 -7 15 -14 26 -6 12 -21 48 -33 80 -12 33 -27 66 -35
74 -7 8 -13 18 -13 23 -1 4 -8 24 -17 45 -8 20 -29 71 -46 112 -17 41 -35 79
-39 84 -5 6 -9 18 -9 28 0 10 -4 18 -10 18 -5 0 -10 7 -10 15 0 10 -10 15 -30
15 l-30 0 -1 -67 c-1 -38 -3 -111 -4 -163 -2 -52 -6 -174 -10 -270 -3 -96 -8
-207 -10 -246 -5 -70 -5 -72 19 -78 24 -6 113 1 127 9 7 5 21 -36 14 -43 -2
-2 -30 -8 -62 -12 -57 -8 -77 -13 -178 -51 -28 -11 -60 -19 -73 -19 -12 0 -48
-9 -79 -19 -82 -28 -128 -31 -128 -8 0 9 3 17 8 17 4 0 21 7 38 16 17 8 33 13
36 10 3 -3 19 2 35 10 20 10 28 21 24 30 -3 9 -6 24 -6 35 0 10 -9 28 -20 39
-12 12 -19 24 -16 29 3 4 -4 14 -15 21 -10 8 -19 22 -19 32 0 10 -4 18 -9 18
-5 0 -14 14 -21 30 -7 17 -15 30 -19 30 -4 0 -15 16 -25 35 -11 19 -23 35 -28
35 -4 0 -8 4 -8 10 0 9 -35 66 -65 105 -8 10 -15 25 -15 32 0 7 -4 13 -8 13
-5 0 -15 12 -23 28 -8 15 -21 32 -29 39 -8 6 -12 14 -8 18 4 4 -2 16 -13 28
-10 11 -19 27 -19 35 0 9 -6 12 -16 8 -9 -3 -27 -6 -41 -6 l-25 0 6 -112 c4
-62 9 -221 11 -353 6 -267 8 -287 30 -279 8 4 15 1 15 -5 0 -8 10 -6 30 4 17
9 30 13 30 11 0 -3 15 1 34 9 33 14 46 12 46 -10 0 -20 -54 -43 -195 -80 -77
-21 -144 -42 -149 -46 -6 -5 -32 -9 -58 -9 -26 0 -48 -4 -48 -10 0 -5 -13 -10
-29 -10 -35 0 -91 -19 -91 -31 0 -5 -12 -9 -28 -9 -15 0 -37 -7 -49 -15 -11
-8 -40 -17 -64 -21 -24 -4 -48 -10 -54 -14 -5 -4 -37 -13 -70 -20 -75 -15
-125 -32 -125 -42 0 -5 -10 -8 -22 -6 -28 3 -138 -22 -138 -32 0 -4 -24 -7
-52 -8 -29 0 -54 -6 -56 -11 -2 -6 -15 -11 -28 -11 -13 0 -24 -3 -24 -7 0 -5
-24 -9 -52 -11 -29 -2 -55 -7 -58 -11 -3 -5 -45 -16 -94 -25 -50 -9 -93 -21
-96 -26 -4 -6 -35 -13 -71 -16 -39 -3 -74 -12 -90 -23 -17 -13 -44 -19 -82
-20 -31 0 -65 -5 -77 -11 -11 -5 -29 -15 -40 -20 -11 -6 -30 -8 -43 -5 -12 3
-44 1 -72 -5 -129 -28 -266 -52 -325 -56 -36 -3 -74 -9 -85 -14 -11 -5 -45
-11 -75 -14 -30 -3 -77 -10 -105 -17 -27 -6 -102 -15 -165 -20 -225 -17 -265
-21 -274 -30 -6 -5 -42 -9 -81 -9 -39 0 -75 -4 -81 -10 -6 -6 -106 -11 -234
-14 -124 -2 -279 -9 -345 -16 -153 -14 -1197 -15 -1384 0 -75 6 -233 15 -351
21 -118 6 -235 12 -260 13 -25 1 -88 6 -140 9 -52 4 -165 12 -250 18 -85 6
-164 14 -175 19 -11 5 -65 14 -120 20 -55 6 -134 15 -175 20 -41 5 -122 14
-180 19 -145 15 -165 18 -245 35 -38 8 -97 15 -130 16 -34 0 -66 5 -72 11 -6
6 -67 15 -134 21 -68 6 -125 11 -127 13 -2 1 0 14 3 27 l6 24 80 -11 79 -12
10 35 c5 19 7 38 5 42 -2 3 -5 27 -6 53 -2 26 -7 47 -12 47 -5 0 -4 6 2 14 7
8 8 16 3 18 -5 1 -19 86 -31 188 -27 223 -42 345 -44 346 -1 1 -16 5 -32 8
-30 6 -31 5 -72 -86 -24 -51 -50 -113 -58 -137 -8 -24 -19 -49 -24 -55 -4 -6
-19 -40 -33 -76 -28 -69 -64 -153 -104 -236 -26 -55 -30 -84 -13 -84 5 0 8 -4
5 -9 -3 -5 20 -12 52 -15 83 -10 91 -14 85 -37 -4 -13 -11 -18 -24 -14 -46 13
-56 15 -91 17 -21 1 -38 5 -38 10 0 4 -19 7 -42 7 -70 -1 -182 12 -193 22 -5
5 -16 9 -25 9 -31 1 -50 26 -44 56 l6 29 91 -9 c51 -5 95 -14 99 -20 4 -7 8
-5 11 4 2 8 9 31 15 50 8 24 9 47 3 67 -7 22 -6 33 2 37 9 3 9 7 1 13 -7 4
-13 33 -15 63 -2 30 -7 57 -10 60 -4 3 -10 43 -14 90 -4 47 -11 90 -16 97 -7
7 -5 13 3 16 10 4 10 8 1 14 -6 4 -14 46 -18 93 -3 47 -10 110 -15 140 -13 70
-23 168 -21 198 0 12 -5 22 -13 22 -7 0 -27 3 -43 6 -29 6 -31 3 -67 -69 -20
-41 -36 -82 -36 -91 0 -9 -4 -16 -10 -16 -5 0 -12 -16 -16 -35 -3 -19 -10 -35
-14 -35 -4 0 -11 -16 -14 -35 -4 -19 -11 -35 -16 -35 -4 0 -11 -19 -15 -42 -4
-23 -14 -48 -21 -56 -8 -7 -14 -22 -14 -33 0 -10 -4 -19 -9 -19 -5 0 -15 -17
-21 -38 -6 -20 -18 -51 -26 -69 -8 -17 -14 -38 -14 -47 0 -9 -4 -16 -10 -16
-5 0 -10 -9 -10 -20 0 -11 -7 -23 -15 -26 -8 -4 -15 -13 -15 -21 0 -8 -11 -39
-25 -69 -26 -57 -32 -94 -15 -94 6 0 10 -6 10 -14 0 -10 20 -16 68 -21 92 -9
112 -15 112 -32 0 -8 -5 -11 -10 -8 -6 3 -10 -4 -10 -17 0 -23 -2 -24 -52 -16
-97 13 -233 36 -260 43 l-28 7 0 -371 0 -371 9600 0 9600 0 0 1009 0 1009 -67
23 c-38 12 -108 39 -157 60 -49 22 -105 39 -123 39 -19 0 -41 7 -49 15 -9 8
-24 15 -34 15 -10 0 -22 5 -25 10 -3 6 -15 10 -25 10 -10 0 -20 4 -22 8 -5 12
-194 72 -228 72 -17 0 -50 4 -73 9 -23 5 -73 14 -112 21 -38 6 -88 15 -110 20
-22 5 -74 14 -115 20 -41 6 -100 15 -130 20 -30 5 -75 12 -100 14 -99 10 -195
28 -201 38 -4 6 -4 19 -1 30 4 17 11 18 56 13 28 -3 58 -8 68 -11 12 -4 18 4
24 28 9 40 10 91 1 105 -4 6 -9 49 -11 97 -3 47 -7 90 -10 94 -6 10 -13 73
-21 187 -3 44 -8 94 -12 110 -8 42 -11 67 -12 91 -1 26 -49 43 -62 22 -5 -7
-23 -56 -40 -108 -17 -52 -38 -105 -45 -117 -8 -13 -12 -23 -8 -23 4 0 2 -6
-3 -12 -6 -7 -25 -58 -43 -113 -18 -55 -37 -103 -42 -106 -5 -3 -8 -10 -7 -15
2 -5 -5 -26 -14 -47 -9 -22 -22 -57 -29 -79 -11 -36 -10 -42 6 -54 10 -7 42
-16 70 -19 l52 -7 -4 -34 c-4 -29 -8 -34 -23 -29 -27 9 -169 25 -269 31 -129
8 -131 8 -123 47 3 17 7 33 8 35 2 2 41 -3 89 -10 54 -7 89 -9 96 -2 12 12 15
93 6 164 -4 30 -9 75 -12 100 -5 46 -10 86 -18 130 -2 14 -7 50 -10 80 -3 30
-9 71 -12 90 -3 19 -7 53 -9 75 -3 22 -7 54 -9 70 -3 17 -8 57 -12 90 -3 33
-12 96 -19 140 -7 44 -10 85 -8 92 3 7 -9 16 -29 21 -39 10 -47 2 -67 -68 -7
-25 -17 -53 -22 -62 -5 -10 -9 -27 -9 -37 0 -11 -4 -23 -10 -26 -5 -3 -10 -19
-10 -36 0 -16 -4 -29 -10 -29 -5 0 -10 -13 -10 -29 0 -17 -4 -33 -10 -36 -5
-3 -10 -17 -10 -30 0 -13 -4 -27 -10 -30 -5 -3 -10 -19 -10 -35 0 -16 -4 -32
-10 -35 -5 -3 -10 -17 -10 -30 0 -13 -4 -27 -10 -30 -5 -3 -10 -15 -10 -26 0
-10 -4 -27 -9 -37 -5 -9 -23 -62 -40 -117 -18 -55 -36 -109 -41 -120 -15 -35
-50 -141 -50 -153 0 -7 6 -12 14 -12 8 0 16 -6 19 -14 3 -7 28 -16 59 -20 86
-11 98 -16 98 -40 0 -41 -14 -50 -67 -42 -233 36 -1018 65 -1570 60 l-403 -5
0 45 0 45 98 3 97 3 -3 45 c-2 31 -265 951 -276 966 -1 1 -13 4 -29 8 -18 4
-29 2 -32 -6z"/>
</g>
</svg>
