<?xml version="1.0" standalone="no"?>
<!DOCTYPE svg PUBLIC "-//W3C//DTD SVG 20010904//EN"
 "http://www.w3.org/TR/2001/REC-SVG-20010904/DTD/svg10.dtd">
<svg version="1.0" xmlns="http://www.w3.org/2000/svg"
 width="3000.000000pt" height="1837.000000pt" viewBox="0 0 3000.000000 1837.000000"
 preserveAspectRatio="xMidYMid meet">
<metadata>
Created by potrace 1.16, written by Peter Selinger 2001-2019
</metadata>
<g transform="translate(0.000000,1837.000000) scale(0.100000,-0.100000)"
fill="#000000" stroke="none">
<path d="M3531 12882 c-57 -28 -57 -29 -123 -167 -45 -94 -102 -173 -207 -280
-48 -49 -109 -115 -134 -145 -26 -30 -53 -62 -60 -71 -8 -9 -44 -61 -80 -115
-45 -69 -101 -133 -181 -211 -63 -62 -126 -129 -139 -150 -13 -21 -32 -45 -41
-52 -9 -8 -33 -44 -53 -80 -61 -110 -92 -152 -193 -256 -54 -55 -109 -118
-124 -140 -14 -22 -36 -54 -48 -71 -13 -17 -40 -55 -60 -85 -21 -30 -54 -76
-73 -104 -19 -27 -45 -65 -56 -82 -12 -18 -24 -33 -27 -33 -4 0 -18 -17 -32
-37 -14 -21 -64 -87 -113 -148 -48 -60 -104 -132 -125 -158 -60 -76 -221 -272
-262 -318 -201 -224 -257 -276 -332 -305 -44 -18 -68 -33 -68 -43 0 -11 -45
-37 -131 -79 -72 -34 -156 -79 -186 -98 -40 -25 -59 -32 -66 -25 -16 16 -24
13 -30 -9 -3 -11 -12 -20 -20 -20 -8 0 -17 -7 -21 -15 -3 -8 -12 -15 -20 -15
-8 0 -27 -11 -43 -24 -63 -53 -267 -145 -421 -191 l-62 -18 1 -3176 c2 -2788
9 -4299 18 -3826 2 83 3 174 2 203 -1 45 1 52 18 52 11 0 21 -6 24 -12 3 -10
9 -8 24 4 11 10 25 18 31 18 7 0 12 4 12 8 0 4 8 8 19 8 12 0 18 -7 17 -21 -2
-20 11 -35 29 -35 6 0 3 4 -5 10 -8 5 -11 12 -8 16 4 4 19 -1 32 -10 14 -9 29
-16 33 -16 4 0 1 5 -7 10 -12 8 -11 10 8 10 12 0 22 -4 22 -10 0 -5 7 -10 15
-10 8 0 15 6 15 14 0 8 5 18 10 21 6 4 10 3 9 -2 -4 -22 2 -32 16 -26 9 3 14
8 11 10 -9 9 23 35 34 28 14 -9 13 -32 -2 -38 -10 -4 -9 -6 1 -6 8 -1 20 7 28
17 14 16 14 16 10 -4 -6 -26 7 -52 17 -35 4 6 3 11 -2 11 -6 0 -5 10 1 24 7
14 14 21 17 17 3 -5 15 -11 26 -15 17 -5 23 -2 28 19 9 37 26 31 20 -7 -4 -27
-3 -29 5 -12 13 30 28 37 35 18 3 -8 2 -13 -3 -10 -5 3 -11 0 -14 -7 -3 -8 4
-14 20 -15 17 -1 22 2 17 11 -4 6 -4 9 1 5 4 -4 17 -3 28 3 15 8 18 8 12 -1
-6 -9 -1 -10 16 -4 13 4 34 7 47 6 12 -1 22 4 22 11 1 7 6 5 14 -6 8 -10 20
-15 29 -11 18 7 60 -52 50 -69 -3 -6 -1 -7 5 -3 11 7 6 31 -11 54 -7 9 -4 12
12 12 30 0 36 -3 33 -17 -2 -7 2 -13 8 -13 14 0 13 23 -2 38 -6 6 -8 15 -3 19
4 5 10 3 12 -4 5 -13 56 -2 79 18 28 23 13 -4 -19 -34 -17 -16 -25 -25 -16
-18 9 6 25 9 35 5 14 -4 16 -3 5 4 -11 8 -9 11 8 17 27 8 41 -2 21 -15 -9 -6
-10 -10 -3 -10 6 0 19 7 27 16 15 14 16 13 16 -6 0 -12 5 -18 10 -15 6 3 10 1
10 -6 0 -7 6 -4 14 7 9 12 11 21 4 25 -7 4 -7 9 0 13 6 3 13 0 15 -6 4 -9 6
-9 6 -1 1 8 10 7 31 -4 18 -8 38 -12 48 -7 9 4 23 6 30 5 6 -1 12 3 12 8 0 16
31 0 38 -20 6 -16 10 -17 32 -6 14 8 31 12 38 9 6 -2 12 2 12 8 0 7 9 2 20
-11 18 -21 19 -22 14 -4 -5 19 -4 19 14 -2 18 -20 21 -21 41 -7 15 11 20 22
16 37 -5 19 -5 20 5 4 6 -9 9 -21 5 -26 -9 -16 16 -25 26 -10 8 12 11 12 20
-1 8 -12 9 -9 4 10 l-7 25 17 -22 c9 -13 24 -23 33 -22 10 0 12 3 4 6 -6 2
-12 9 -12 14 0 4 7 5 17 2 10 -4 14 -2 10 4 -3 5 0 10 8 10 8 0 13 -3 10 -5
-6 -6 15 -32 26 -32 4 0 11 9 14 20 3 11 11 20 17 20 5 0 8 -7 4 -15 -8 -21
11 -19 23 3 14 24 14 6 0 -21 l-12 -22 25 22 c22 21 25 22 41 6 9 -9 20 -13
24 -9 4 4 3 10 -3 14 -6 4 -14 16 -17 27 -5 14 -1 12 14 -8 11 -15 25 -25 30
-21 5 3 7 10 4 15 -4 5 5 4 19 -3 14 -6 26 -15 26 -20 0 -4 5 -8 11 -8 5 0 7
5 3 11 -4 8 0 8 15 0 11 -7 21 -17 21 -24 1 -7 7 -1 15 13 8 14 14 21 15 16 0
-4 11 -1 25 8 23 15 24 15 19 -1 -5 -17 -4 -17 9 0 10 12 17 14 22 7 3 -5 11
-8 16 -5 5 4 9 1 9 -4 0 -6 5 -11 11 -11 6 0 8 9 4 23 -6 19 -3 18 20 -8 23
-26 25 -27 20 -7 -4 13 -2 22 4 22 6 0 11 -7 11 -15 0 -8 7 -15 15 -15 9 0 18
-7 22 -16 6 -15 7 -15 19 0 8 11 14 13 19 7 8 -14 35 -14 35 -1 0 6 -4 9 -9 8
-5 -2 -11 2 -12 7 -2 6 8 10 24 10 23 1 26 -2 21 -20 -4 -14 -3 -16 4 -6 7 10
11 10 17 1 4 -6 14 -9 22 -6 10 4 13 2 10 -7 -3 -8 1 -14 8 -14 7 0 11 6 8 13
-9 23 54 41 69 19 5 -6 8 -6 8 2 0 15 27 7 52 -15 14 -12 21 -12 32 -3 8 7 20
10 26 6 5 -3 10 1 10 9 0 10 6 13 15 10 8 -4 15 -10 15 -16 0 -5 -5 -6 -12 -2
-7 5 -8 3 -3 -5 5 -9 13 -8 29 7 33 29 55 40 34 15 -22 -24 -23 -39 -4 -46 16
-6 26 1 26 17 0 6 -4 5 -9 -3 -6 -9 -11 -10 -15 -2 -4 5 2 19 12 29 15 15 21
16 30 6 7 -7 12 -19 12 -25 0 -7 9 -3 21 10 16 17 24 19 34 11 7 -6 16 -7 19
-2 6 10 36 9 53 -1 6 -4 14 -3 17 2 4 5 -3 13 -15 16 -11 4 -18 9 -16 12 3 2
15 -1 27 -7 17 -9 19 -14 9 -26 -19 -23 -5 -26 19 -4 30 28 32 28 47 0 8 -14
14 -19 15 -12 0 7 5 10 11 7 6 -4 21 3 35 16 13 12 24 18 24 12 0 -6 -6 -13
-12 -16 -7 -2 1 -11 18 -20 31 -16 44 -14 44 7 0 7 -3 7 -8 -1 -5 -7 -13 -9
-21 -4 -14 9 31 24 76 25 12 1 28 7 35 13 25 26 29 12 4 -18 -14 -17 -26 -35
-26 -41 0 -6 10 1 23 16 16 18 29 25 40 20 9 -3 25 -3 35 1 29 13 52 12 52 -2
0 -7 -5 -13 -12 -13 -6 0 -8 -3 -5 -6 4 -4 13 -1 21 5 8 7 27 14 43 16 15 1
27 7 26 13 -3 11 23 10 32 -1 3 -4 2 -5 -1 -2 -4 2 -13 -2 -20 -10 -8 -8 -22
-11 -32 -8 -9 3 -14 3 -11 -1 10 -11 49 -16 49 -5 0 5 9 9 20 9 11 0 20 -4 20
-10 0 -5 -5 -10 -12 -10 -6 0 -9 -2 -6 -5 10 -11 57 22 63 44 5 18 9 21 18 12
9 -9 8 -14 -3 -21 -13 -8 -12 -10 4 -10 12 0 16 -5 13 -14 -4 -10 -1 -13 9 -9
7 3 14 9 14 14 0 5 5 9 11 9 5 0 8 -4 4 -9 -3 -5 -1 -12 5 -16 5 -3 10 0 10 7
1 9 5 7 14 -5 20 -26 29 -20 10 8 -18 28 -13 33 11 9 10 -10 20 -13 28 -7 13
10 84 10 94 -1 3 -3 17 -6 31 -6 18 0 23 4 18 16 -6 14 -4 15 10 4 13 -12 17
-11 25 1 6 10 9 11 9 1 0 -7 5 -10 11 -6 8 4 4 13 -12 26 -24 18 -24 18 13 1
20 -10 30 -19 22 -21 -17 -4 0 -42 19 -41 9 0 9 2 0 6 -10 4 -10 10 2 26 18
26 20 41 3 31 -7 -5 -8 -3 -3 6 6 10 11 10 20 -3 7 -10 18 -17 24 -17 7 0 9
-5 6 -10 -5 -8 -11 -8 -20 0 -11 9 -12 7 -9 -7 6 -20 44 -26 44 -7 0 6 11 14
24 16 16 3 23 1 20 -7 -7 -17 47 -11 61 7 5 7 21 14 35 16 15 1 20 -1 13 -6
-7 -5 -9 -13 -3 -22 7 -12 11 -12 25 0 13 11 18 11 24 1 5 -7 27 -14 51 -17
34 -3 41 -1 36 11 -6 16 -5 16 31 20 15 1 20 -2 16 -12 -4 -10 -9 -11 -18 -3
-11 9 -12 6 -8 -11 6 -22 7 -22 34 10 27 33 28 33 40 13 11 -17 16 -19 28 -9
12 10 14 8 9 -10 -4 -13 -2 -26 3 -29 5 -3 9 4 9 16 0 12 5 18 10 15 6 -3 10
2 10 11 0 22 13 10 34 -31 9 -17 16 -23 16 -14 0 9 7 23 16 30 14 11 16 10 14
-6 -4 -34 -1 -36 22 -15 23 21 54 28 42 8 -4 -6 -3 -8 4 -4 6 3 15 -2 21 -11
6 -10 10 -13 10 -8 0 6 -6 19 -14 29 -8 11 -15 25 -15 30 0 6 4 5 9 -3 8 -12
12 -12 24 -2 13 10 15 9 11 -11 -2 -13 -2 -17 2 -10 3 6 13 12 21 12 12 0 13
-3 4 -13 -8 -10 -7 -14 4 -14 8 0 15 6 15 14 0 11 4 11 20 1 17 -11 22 -10 29
1 5 7 13 11 19 7 6 -3 13 0 15 6 4 9 6 8 6 -2 1 -17 78 -43 83 -29 4 12 48 14
72 4 14 -6 17 -5 12 3 -4 7 -14 12 -22 12 -8 0 -14 5 -14 10 0 7 13 8 35 4 26
-5 35 -3 33 6 -2 7 3 14 10 15 7 2 8 1 3 -1 -5 -3 -7 -14 -4 -25 3 -10 0 -25
-6 -33 -10 -12 -8 -13 8 -9 12 3 17 11 14 19 -3 8 0 14 7 14 6 0 9 4 6 8 -3 5
1 9 7 9 8 0 12 -11 11 -26 -1 -14 1 -18 3 -8 5 20 43 23 62 4 11 -9 13 -9 7 1
-9 16 6 16 24 0 9 -8 8 -3 -3 14 l-17 27 26 -14 c14 -7 31 -21 39 -31 12 -17
13 -16 9 11 l-5 30 16 -25 16 -25 -4 31 c-3 28 -2 30 20 20 25 -12 31 -26 11
-26 -9 0 -9 -3 -1 -11 8 -8 21 -8 50 2 52 17 71 18 84 2 6 -7 16 -10 21 -7 6
4 14 0 19 -7 6 -10 9 -8 9 9 0 12 4 22 9 22 16 0 41 -31 35 -42 -5 -7 -2 -8 5
-4 7 5 10 15 7 23 -3 8 -1 11 4 8 5 -3 22 2 37 12 l28 17 -20 -23 -19 -22 29
7 c17 3 34 10 39 15 5 4 16 4 25 0 9 -5 30 -8 47 -7 21 1 30 -3 27 -11 -3 -7
-1 -13 5 -13 6 0 12 6 15 13 3 9 8 8 22 -3 17 -14 18 -14 6 8 -7 13 -10 26 -7
30 3 3 6 0 6 -7 0 -7 4 -9 10 -6 6 3 10 0 10 -8 0 -8 7 -17 15 -21 11 -4 15 1
15 18 0 13 7 26 15 30 17 6 21 -9 5 -19 -6 -3 -10 -11 -10 -17 0 -6 3 -8 7 -5
3 4 11 -1 18 -10 8 -11 14 -13 19 -5 4 7 3 12 -1 12 -5 0 -9 10 -10 21 -2 23
1 21 35 -25 14 -18 22 -23 22 -14 0 22 28 43 57 43 23 1 23 0 7 -12 -10 -8
-24 -11 -31 -9 -7 3 -13 0 -13 -5 0 -7 9 -9 23 -4 36 11 71 11 79 0 5 -6 8 -5
8 3 0 6 7 12 15 12 7 0 19 8 25 18 9 14 10 11 7 -15 -3 -27 0 -33 15 -33 11 0
17 4 14 9 -3 4 4 17 16 27 12 11 18 14 15 8 -4 -7 4 -15 20 -19 17 -4 23 -9
15 -14 -9 -5 -8 -12 3 -27 9 -11 13 -13 10 -4 -7 23 10 43 31 36 11 -3 23 -5
28 -5 5 0 13 -5 17 -13 7 -10 9 -8 9 6 0 12 -5 16 -15 12 -13 -4 -14 -2 -5 14
6 11 13 20 16 20 3 0 3 -4 0 -9 -3 -5 1 -14 8 -20 9 -8 16 -8 20 -2 10 15 46
9 46 -8 0 -11 3 -10 13 4 10 12 16 14 21 7 4 -7 2 -12 -4 -12 -6 0 -8 -5 -4
-11 3 -6 9 -7 13 -3 8 11 34 12 42 1 3 -5 13 7 22 25 l16 33 7 -32 c8 -40 17
-42 32 -7 7 14 16 23 21 20 5 -4 20 -2 32 3 18 6 27 4 37 -8 7 -9 11 -11 8 -6
-2 6 4 11 14 11 10 0 17 -4 14 -7 -2 -4 9 -7 25 -7 18 1 28 5 24 11 -3 6 -1 7
6 3 6 -4 9 -12 6 -17 -4 -5 -1 -9 4 -9 6 0 11 4 11 10 0 5 9 14 20 20 16 9 18
8 14 -5 -4 -10 0 -15 15 -15 26 0 27 -8 4 -26 -10 -7 -13 -14 -7 -14 6 0 21
11 34 25 15 16 30 23 41 20 10 -3 19 0 22 7 2 7 3 6 2 -3 -1 -9 9 -20 26 -26
28 -11 42 -1 17 11 -7 3 -4 4 7 3 11 -1 19 3 18 8 -1 6 7 12 18 12 10 1 19 -3
19 -8 0 -6 -4 -8 -9 -5 -5 3 -14 -1 -21 -10 -12 -13 -10 -14 15 -10 16 3 32
10 35 17 6 8 9 8 14 0 11 -17 24 -13 31 10 6 17 9 18 22 7 13 -11 13 -13 -4
-19 -15 -6 -15 -8 -1 -8 9 -1 19 -7 21 -13 4 -10 8 -10 15 1 6 8 17 11 26 8
10 -4 16 -1 16 9 0 12 2 12 14 2 8 -7 12 -16 9 -20 -2 -4 3 -5 11 -2 9 3 14
10 11 14 -3 4 3 14 12 21 10 8 14 9 10 2 -4 -6 -3 -14 2 -18 6 -3 9 -11 7 -18
-1 -7 -1 -9 1 -4 6 10 33 9 33 -2 0 -8 79 -5 88 4 3 2 0 11 -6 18 -12 14 -6
27 12 27 6 0 5 -4 -3 -9 -11 -7 -9 -11 8 -20 14 -8 21 -8 21 -1 0 7 6 8 19 0
24 -12 54 -13 47 -2 -3 5 8 9 25 10 25 1 29 -3 24 -18 -3 -10 -1 -21 5 -25 6
-3 10 3 10 14 0 12 5 21 11 21 7 0 9 9 6 23 -6 20 -4 20 18 -5 15 -17 25 -23
28 -15 2 6 2 2 0 -10 -2 -13 1 -23 6 -23 5 0 16 -3 25 -6 9 -3 16 -1 16 5 0 6
-3 10 -7 9 -5 -2 -8 2 -8 7 0 6 5 9 12 9 6 -1 9 5 6 12 -6 17 9 18 26 2 11
-10 13 -10 7 0 -4 6 -2 12 3 12 14 0 14 -15 1 -43 -10 -22 -10 -22 6 0 9 13
24 23 33 22 10 0 11 -2 4 -6 -7 -2 -13 -9 -13 -14 0 -6 5 -7 10 -4 6 4 18 1
26 -6 12 -10 13 -9 8 5 -4 11 -1 16 11 16 9 0 19 9 22 20 5 20 6 20 24 -1 11
-12 17 -25 14 -28 -4 -3 -10 1 -14 8 -11 17 -31 5 -30 -17 0 -11 2 -13 6 -4 4
10 8 10 20 1 12 -10 16 -10 23 1 4 7 6 18 4 25 -6 16 72 19 82 3 5 -8 2 -9 -9
-5 -10 3 -17 2 -17 -3 0 -6 -5 -10 -11 -10 -5 0 -7 6 -3 13 6 9 4 9 -7 0 -9
-9 -10 -16 -2 -24 12 -12 46 3 74 33 9 10 19 15 22 11 4 -3 -1 -12 -10 -18
-15 -11 -13 -12 11 -13 18 0 26 5 22 13 -2 7 4 15 14 18 23 6 30 0 30 -25 0
-28 40 -24 41 5 l0 22 11 -23 c7 -13 17 -21 26 -17 7 3 18 5 23 5 6 0 8 4 5 9
-3 5 1 14 9 21 13 11 14 10 8 -6 -6 -17 -5 -17 10 -5 15 12 17 12 11 -4 -6
-15 -4 -16 14 -6 15 8 22 8 22 1 0 -15 16 -12 36 7 16 16 16 16 10 -5 -9 -26
2 -29 20 -4 9 11 13 12 14 4 0 -10 7 -9 29 2 25 13 30 13 34 1 3 -7 1 -16 -6
-19 -9 -3 -8 -5 1 -5 7 -1 15 6 18 14 4 8 13 15 21 15 8 0 11 -5 7 -11 -4 -8
0 -9 15 -4 15 5 21 2 21 -10 0 -9 4 -14 10 -10 5 3 6 13 3 22 -5 13 -2 15 18
10 13 -4 28 -7 32 -7 5 0 5 -5 1 -12 -4 -7 -3 -8 5 -4 6 4 10 15 9 23 -2 9 4
18 12 20 11 3 11 2 3 -4 -8 -6 -9 -13 -2 -23 7 -12 11 -13 18 -2 10 17 21 15
44 -5 9 -9 17 -12 17 -7 0 5 5 2 10 -6 9 -13 11 -13 20 0 8 12 11 13 19 1 7
-11 9 -11 14 0 4 11 10 11 36 -3 30 -17 31 -17 21 2 -13 24 -13 30 0 30 6 0
10 -7 10 -16 0 -8 5 -12 10 -9 7 4 6 14 -2 28 -10 20 -10 21 5 8 9 -7 23 -11
32 -7 8 3 14 0 12 -7 -1 -7 4 -11 11 -9 6 1 12 -5 12 -15 0 -14 2 -14 18 -1
19 17 56 13 46 -5 -5 -9 -4 -9 6 0 7 6 18 10 24 9 6 -2 8 -1 4 1 -5 3 -8 8 -8
13 0 15 30 4 45 -16 15 -19 15 -19 34 3 13 16 28 21 54 20 19 -1 33 -5 31 -9
-6 -9 45 -42 53 -35 3 4 -2 9 -11 13 -9 3 -16 11 -16 16 0 7 4 7 13 1 20 -16
49 -24 41 -12 -4 8 1 9 15 4 12 -3 21 -2 21 3 0 11 25 10 36 -1 13 -12 24 -7
18 8 -4 8 -1 15 5 15 6 0 11 -7 11 -15 0 -22 38 -19 45 4 3 10 13 17 23 17 27
-3 72 -28 72 -41 0 -6 9 -11 20 -10 29 2 37 15 9 16 -13 0 -19 3 -12 5 7 3 9
12 6 21 -4 10 4 7 21 -8 30 -26 78 -40 96 -29 7 4 10 12 7 18 -4 5 3 18 14 28
20 18 20 18 9 -10 -6 -16 -9 -30 -8 -31 17 -14 48 -24 48 -15 0 5 8 10 18 10
13 1 11 4 -8 16 l-25 15 25 -5 c14 -3 29 -6 34 -6 4 0 6 -7 3 -14 -4 -10 -1
-13 8 -10 7 3 16 12 19 21 5 12 8 12 23 -3 11 -11 18 -13 21 -5 2 7 9 6 19 -4
18 -19 28 -19 47 0 20 20 29 19 23 -4 -3 -15 0 -19 14 -18 22 1 24 8 7 26 -11
10 -10 11 5 6 9 -4 17 -10 17 -14 0 -13 60 -5 78 9 19 16 55 23 46 9 -3 -5 0
-9 5 -9 6 0 11 -8 11 -17 1 -14 4 -12 15 7 l14 25 8 -23 c8 -21 11 -22 22 -9
7 10 22 14 38 11 20 -4 24 -1 20 10 -5 12 0 15 18 14 20 -2 22 -5 12 -17 -10
-12 -9 -14 6 -8 9 3 17 2 17 -3 0 -5 7 -7 15 -4 8 4 15 1 15 -6 0 -6 5 -8 10
-5 6 4 8 10 5 15 -3 4 2 11 11 14 25 9 27 7 13 -11 -12 -14 -12 -16 0 -8 8 4
27 10 44 11 16 2 37 13 47 24 9 11 20 17 23 14 3 -3 -6 -17 -21 -30 l-27 -24
38 15 c36 15 38 15 46 -6 5 -15 10 -19 15 -11 4 7 13 10 19 6 7 -3 3 2 -7 10
-11 9 -17 18 -14 21 10 10 40 -8 48 -29 8 -19 9 -18 9 9 l1 30 20 -32 c24 -40
33 -43 19 -6 l-10 28 24 -23 c24 -23 26 -23 36 -5 10 17 10 16 11 -4 0 -13 5
-23 10 -23 6 0 10 5 10 11 0 5 4 8 9 4 6 -3 15 3 21 12 10 16 10 16 5 -4 -3
-12 -2 -24 3 -27 6 -3 9 2 8 11 -2 22 21 28 27 6 4 -16 5 -16 6 -1 0 9 -3 20
-9 23 -13 8 -13 35 1 35 5 0 7 -5 4 -10 -3 -6 0 -17 9 -25 11 -11 16 -12 19
-2 3 7 6 5 6 -5 1 -24 12 -23 41 4 20 18 23 19 17 4 -4 -10 -7 -20 -7 -22 0
-3 -4 -2 -10 1 -5 3 -10 1 -10 -4 0 -16 16 -13 31 5 12 14 14 14 20 -3 7 -16
8 -16 8 0 1 9 7 17 15 17 8 0 22 3 32 7 12 4 15 3 10 -5 -4 -7 -3 -12 3 -12 5
0 11 5 13 10 2 6 19 2 41 -9 29 -15 37 -16 33 -5 -3 8 -1 14 5 14 6 0 7 5 4
10 -3 6 -1 10 4 10 6 0 11 -7 11 -15 0 -8 9 -15 21 -15 13 0 18 4 13 12 -4 7
-3 8 4 4 6 -4 9 -14 6 -24 -4 -11 2 -8 16 8 12 14 19 19 15 13 -3 -7 -1 -13 5
-13 6 0 8 -5 4 -11 -3 -6 5 -3 20 6 19 13 30 14 39 7 13 -11 40 -1 37 14 0 5
8 10 20 12 11 2 20 -1 20 -7 0 -6 -7 -8 -15 -5 -9 4 -15 0 -15 -10 0 -12 5
-14 23 -7 12 4 28 6 36 3 10 -3 12 0 8 12 -4 9 -2 16 4 16 5 0 12 -7 16 -16 5
-13 7 -13 14 -2 7 11 11 10 19 -2 7 -11 5 -17 -8 -21 -14 -5 -13 -8 7 -18 13
-7 21 -8 17 -3 -8 13 3 42 16 42 5 0 7 -4 4 -9 -3 -5 5 -11 19 -13 14 -3 25
-1 25 3 0 5 7 9 15 9 8 0 14 5 13 11 -2 6 4 14 12 16 10 3 11 2 4 -4 -7 -5 -8
-16 -3 -30 10 -27 21 -30 18 -5 -3 32 1 36 17 16 8 -10 12 -13 8 -5 -4 9 -2
12 7 9 8 -3 24 -1 36 3 13 5 25 4 28 -1 9 -14 42 -12 49 3 3 6 3 2 0 -10 -4
-17 -1 -23 10 -23 9 0 16 5 16 11 0 7 9 9 21 6 17 -4 18 -3 8 9 -10 12 -9 13
5 8 9 -3 16 -14 16 -23 1 -14 2 -14 13 -1 7 8 21 15 32 14 52 -3 54 -4 48 -21
-6 -15 -4 -16 8 -6 8 7 25 10 36 7 12 -3 38 -1 58 6 28 9 39 9 51 -1 20 -16
84 -23 84 -9 0 6 -5 8 -11 4 -7 -4 -10 -1 -7 7 3 8 14 12 24 11 26 -5 29 -9
16 -25 -9 -10 -8 -14 3 -14 8 0 12 4 9 8 -3 5 8 11 23 15 15 3 34 14 42 23 12
14 12 14 7 -4 -4 -14 1 -24 17 -34 17 -11 19 -11 10 0 -22 22 -14 33 8 13 18
-17 21 -17 18 -2 -2 9 1 17 6 17 6 1 10 -4 10 -10 0 -6 10 -18 23 -27 19 -13
22 -13 22 1 0 8 -6 14 -14 13 -8 0 -14 4 -13 9 1 6 8 9 16 7 10 -3 12 2 7 15
-5 13 -1 12 15 -6 15 -16 19 -26 11 -29 -7 -2 -10 -8 -6 -13 11 -19 22 -8 20
20 -1 17 1 28 5 25 4 -2 10 2 12 8 4 10 6 10 6 1 1 -7 8 -10 19 -6 14 5 15 3
5 -8 -17 -18 -17 -34 0 -20 8 6 16 9 18 7 2 -3 24 -7 48 -10 37 -4 44 -2 48
15 4 14 9 17 18 9 15 -12 36 -10 47 5 5 6 8 5 8 -4 0 -7 6 -11 15 -7 8 3 15 1
15 -3 0 -5 -6 -12 -12 -14 -13 -5 17 -11 36 -8 5 1 13 -4 19 -11 6 -10 8 -9 4
4 -3 9 0 19 8 22 8 3 15 0 17 -6 3 -7 10 -8 17 -4 7 5 10 15 6 25 -4 10 1 8
15 -7 25 -27 32 -28 23 -4 -3 9 -3 14 2 10 4 -4 14 -3 21 3 9 8 11 5 7 -10 -6
-25 12 -28 21 -4 6 15 10 13 25 -11 10 -15 21 -23 25 -18 3 6 0 13 -6 15 -8 3
-6 6 5 6 9 1 17 6 17 13 0 9 3 9 12 0 10 -10 10 -15 -2 -22 -8 -5 -12 -11 -9
-14 3 -3 17 6 32 20 29 27 33 25 16 -7 -10 -20 -10 -20 16 -3 23 15 30 16 47
5 18 -11 20 -11 15 3 -4 9 -2 16 3 16 6 0 10 -4 10 -8 0 -5 15 -9 33 -10 28 0
29 1 10 9 -23 8 -32 29 -13 29 6 0 10 -4 10 -10 0 -5 6 -7 13 -4 8 3 22 -6 32
-20 17 -23 20 -23 42 -9 13 8 23 12 23 8 0 -4 7 -2 15 5 8 7 12 17 8 24 -3 6
0 5 8 -2 12 -11 12 -14 -1 -22 -8 -5 -12 -11 -9 -15 3 -3 17 4 30 16 l24 21 6
-24 c6 -20 7 -21 9 -3 1 11 4 14 7 8 7 -18 18 -16 39 5 17 16 17 16 12 -5 -5
-19 -4 -20 13 -10 15 9 22 8 35 -4 13 -14 21 -15 45 -6 17 7 27 17 25 24 -3 7
0 15 6 19 6 4 8 3 5 -2 -8 -14 9 -38 22 -30 6 4 9 12 6 17 -3 5 1 6 9 3 13 -5
12 -9 -7 -25 -12 -10 -17 -18 -10 -19 6 0 15 5 18 10 10 16 25 12 26 -7 0 -11
3 -13 6 -5 2 6 10 10 16 6 7 -3 4 1 -5 9 -10 8 -18 19 -18 26 0 6 8 4 20 -6
26 -22 70 -25 92 -5 14 12 21 12 33 2 8 -7 22 -10 31 -6 8 3 25 1 36 -5 15 -8
19 -8 14 0 -4 6 -2 11 3 11 6 0 11 -7 11 -15 0 -8 4 -15 9 -15 5 0 7 8 4 18
-3 12 1 19 10 19 10 0 14 -9 12 -24 -2 -22 -1 -23 20 -9 17 11 25 12 35 3 10
-9 11 -9 6 1 -4 6 -2 12 4 12 6 0 8 5 5 10 -10 15 5 12 22 -6 13 -13 18 -13
24 -2 7 11 11 10 19 -2 9 -13 10 -13 11 0 0 10 3 8 9 -5 5 -11 9 -14 9 -6 1
11 4 11 18 0 12 -10 17 -11 20 -2 2 7 11 9 19 6 10 -4 12 0 8 11 -3 9 -3 16 1
16 10 0 35 -27 35 -39 0 -17 26 -13 41 7 13 16 13 16 -5 2 -18 -14 -19 -13
-13 3 4 10 7 23 7 29 0 6 8 4 18 -5 10 -10 26 -17 35 -17 19 0 32 -17 16 -22
-7 -2 -5 -9 5 -17 14 -12 16 -12 11 1 -3 8 4 23 15 33 18 16 23 17 30 5 5 -7
17 -15 27 -16 17 -3 17 -2 0 10 -15 12 -16 14 -2 20 8 3 15 1 15 -5 0 -6 5 -7
12 -3 8 5 9 1 5 -12 -6 -17 -5 -17 5 -2 11 15 13 15 37 0 14 -10 22 -12 18 -4
-5 8 -2 12 8 12 9 0 14 -4 11 -9 -3 -5 1 -11 9 -14 9 -4 12 -1 8 9 -3 10 2 14
18 14 19 0 21 -2 9 -10 -8 -5 -11 -10 -6 -10 5 0 18 8 29 18 19 16 19 16 13
-3 -5 -17 -1 -21 19 -23 14 -1 28 4 31 12 8 20 44 28 44 9 0 -8 -5 -11 -12 -7
-7 4 -8 3 -4 -5 6 -9 11 -9 22 0 7 6 12 15 9 19 -8 13 16 23 27 12 12 -12 48
-4 48 12 0 6 5 3 11 -7 8 -13 7 -22 -2 -33 -10 -13 -10 -17 1 -24 9 -6 17 -5
21 2 4 6 15 8 25 4 16 -5 16 -4 -2 12 -19 16 -19 19 -6 32 14 13 15 12 9 -3
-7 -19 9 -22 33 -7 10 6 20 4 32 -7 13 -12 18 -12 18 -3 0 10 4 9 17 -1 15
-12 16 -12 10 4 -3 9 -2 17 3 17 9 0 14 -15 11 -33 -1 -5 4 -7 11 -4 7 2 12
10 11 16 -4 14 3 14 28 0 11 -5 17 -14 14 -20 -4 -5 -1 -9 4 -9 6 0 11 4 11 8
0 11 51 9 69 -2 10 -6 10 -4 0 12 -7 12 -17 19 -21 16 -4 -3 -5 2 -2 11 6 14
8 13 21 -5 8 -11 24 -20 36 -19 l22 0 -22 9 c-31 13 -29 15 15 16 20 0 31 -1
25 -3 -7 -3 -13 -9 -13 -15 0 -6 7 -8 14 -5 10 4 13 1 9 -8 -3 -8 -9 -12 -14
-9 -5 3 -9 0 -9 -5 0 -15 25 -14 38 2 7 8 7 18 2 27 -13 21 -1 31 22 19 13 -7
17 -14 10 -18 -7 -4 -8 -12 -1 -21 8 -13 10 -13 19 0 8 12 12 12 18 2 7 -10
11 -10 22 3 11 14 7 19 -12 16 -5 0 -8 4 -8 9 0 13 17 13 25 0 3 -5 13 -10 21
-10 8 0 12 5 9 10 -3 6 -2 10 3 10 17 0 22 -13 9 -28 -10 -13 -9 -14 2 -8 8 5
17 3 23 -5 8 -11 9 -10 4 4 -5 17 3 21 38 17 10 -1 16 3 12 8 -3 5 7 9 22 9
26 0 26 0 5 -10 -13 -5 -23 -16 -23 -24 0 -11 5 -10 24 2 30 20 96 17 97 -5 0
-10 3 -9 9 5 5 11 9 16 9 11 1 -5 8 -3 16 4 12 10 14 8 10 -9 -2 -12 0 -21 6
-21 5 0 9 8 10 18 0 14 2 14 9 -3 l9 -20 1 20 1 20 16 -20 c15 -20 15 -20 11
0 -7 30 34 27 61 -5 l22 -25 -6 23 c-6 22 -5 23 14 13 12 -7 21 -9 21 -5 0 3
7 0 17 -7 13 -11 17 -12 21 -1 3 10 7 10 16 -2 8 -11 15 -13 26 -6 10 6 11 10
3 10 -7 0 -13 5 -13 10 0 17 28 11 32 -7 2 -10 13 -17 29 -17 15 -1 25 3 23 9
-3 7 8 10 31 7 19 -2 35 -8 35 -13 0 -5 4 -9 10 -9 5 0 7 7 4 15 -4 8 -1 15 5
15 6 0 11 -6 11 -12 0 -8 8 -4 17 7 12 15 14 16 10 3 -6 -16 20 -35 31 -23 3
3 0 5 -6 5 -7 0 -12 5 -12 11 0 5 4 7 10 4 6 -3 7 1 4 9 -9 25 10 19 21 -6 12
-27 38 -38 28 -12 -4 12 -3 15 5 10 7 -4 12 -2 12 3 0 6 -4 11 -10 11 -5 0
-10 6 -10 13 0 6 11 1 23 -13 13 -15 30 -24 41 -22 10 2 16 0 13 -6 -4 -5 0
-18 8 -28 8 -10 15 -14 15 -7 0 6 -4 14 -10 18 -5 3 -7 12 -3 21 4 11 9 12 19
3 8 -6 11 -16 8 -21 -3 -5 3 -4 15 4 12 7 20 17 17 23 -2 5 14 11 35 12 22 0
39 -3 39 -8 0 -5 5 -9 11 -9 5 0 7 4 4 10 -11 17 8 11 31 -11 l21 -20 -2 26
c-3 21 -1 24 10 15 8 -6 16 -19 18 -28 2 -9 3 -4 2 11 -1 20 2 26 12 22 8 -3
16 -5 19 -5 2 0 1 -6 -2 -13 -3 -8 2 -19 10 -26 12 -10 14 -9 9 8 -3 12 -1 21
6 21 6 0 11 -6 11 -13 0 -8 9 -13 23 -11 12 1 25 3 30 3 4 1 7 9 8 19 0 11 5
7 13 -12 9 -19 16 -25 21 -17 4 7 13 10 21 7 9 -3 11 0 7 11 -4 11 -2 14 5 9
8 -4 10 -2 6 7 -6 17 22 31 32 16 3 -5 15 -7 27 -4 12 2 17 2 10 -1 -7 -3 -9
-12 -6 -21 4 -10 2 -14 -4 -10 -5 3 -10 -1 -10 -10 0 -12 5 -11 19 7 10 12 18
19 18 14 0 -4 7 1 15 12 14 19 14 18 15 -3 0 -13 -5 -23 -12 -23 -9 0 -9 -3 1
-12 10 -11 15 -10 25 4 7 10 16 14 20 10 4 -4 15 2 23 13 15 20 15 20 10 -2
-6 -27 5 -30 24 -7 12 14 14 14 26 -2 11 -15 13 -15 13 -2 0 8 7 21 15 28 13
11 14 10 9 -4 -3 -9 -1 -16 5 -16 6 0 11 -5 11 -11 0 -8 -5 -8 -15 1 -9 7 -15
8 -15 2 0 -9 30 -26 36 -19 2 1 7 14 13 27 l10 25 0 -23 c1 -22 2 -22 17 -7
20 19 43 4 45 -29 1 -18 2 -18 6 -3 3 13 11 17 24 14 13 -4 25 3 35 19 9 13
20 22 24 19 5 -3 11 -1 15 4 3 6 21 1 42 -11 35 -21 36 -21 49 -3 13 18 14 18
14 -2 0 -30 29 -38 40 -10 6 16 9 17 9 5 1 -9 5 -20 11 -23 6 -4 7 1 3 12 -6
16 -5 17 12 3 17 -14 18 -13 13 7 -5 19 -3 20 23 11 16 -5 29 -15 29 -21 0 -7
-4 -7 -12 1 -17 17 -28 15 -28 -4 0 -8 5 -12 10 -9 6 3 10 2 10 -4 0 -14 30
-2 58 22 30 27 64 31 56 5 -3 -10 -1 -18 5 -18 6 0 8 -8 5 -18 -5 -14 -3 -14
10 2 10 13 16 15 16 7 0 -10 3 -11 13 -2 8 6 18 7 23 3 4 -4 2 2 -6 12 -14 18
-13 19 8 14 12 -4 22 -2 22 5 0 6 3 7 6 4 4 -4 1 -13 -6 -22 -9 -11 -9 -15 -1
-15 14 0 35 19 44 40 4 8 4 -3 0 -24 -4 -27 -2 -37 5 -32 6 4 9 13 5 21 -3 10
1 15 12 15 9 0 13 -5 10 -10 -4 -6 -1 -9 7 -8 7 2 16 10 20 18 6 13 7 13 7 -1
1 -9 7 -22 15 -28 12 -10 19 -8 35 8 12 12 21 18 21 14 0 -5 7 1 15 11 8 11
15 15 15 9 0 -7 -7 -19 -16 -27 -8 -9 -11 -16 -5 -16 5 0 13 5 16 10 3 6 15
10 26 10 10 0 19 5 19 11 0 5 5 7 12 3 8 -5 9 -2 5 10 -4 11 -3 15 4 10 6 -3
9 -14 6 -24 -3 -11 2 -21 10 -24 8 -3 11 -1 8 4 -3 6 -1 10 4 10 6 0 11 -4 11
-10 0 -5 5 -10 10 -10 6 0 10 6 8 13 -2 7 2 13 7 13 6 0 9 -7 7 -14 -2 -9 5
-6 19 7 19 18 20 22 8 38 -12 16 -12 17 2 6 9 -7 19 -10 23 -6 4 4 4 0 1 -8
-3 -9 3 -23 16 -35 19 -16 21 -16 16 -2 -3 9 0 19 8 22 10 3 12 0 8 -11 -4
-11 -2 -14 5 -9 7 4 12 2 12 -4 0 -6 5 -8 11 -4 8 4 7 9 -2 15 -7 4 -10 11 -5
16 4 4 12 0 17 -10 6 -9 20 -17 32 -17 16 0 18 3 8 9 -9 6 -10 11 -2 15 6 4
11 3 11 -3 0 -6 8 -15 19 -20 16 -9 17 -7 13 14 -2 15 0 25 7 25 6 0 11 -7 11
-15 0 -9 6 -12 15 -9 11 5 13 2 9 -11 -6 -15 -4 -16 14 -6 11 6 23 16 26 23 5
10 7 10 12 1 3 -7 12 -13 20 -13 9 0 13 -3 10 -8 -2 -4 3 -16 11 -27 15 -20
15 -20 8 2 -5 18 -3 22 10 17 9 -4 14 -12 11 -19 -2 -6 0 -18 5 -26 6 -10 8
-4 5 17 -4 41 12 84 24 64 6 -9 5 -17 -2 -21 -7 -4 -2 -11 12 -19 12 -6 24 -9
28 -6 3 3 1 6 -4 6 -5 0 -10 8 -10 19 0 11 5 17 13 14 7 -3 10 -9 7 -14 -3 -5
0 -9 5 -9 10 0 15 14 12 33 -1 5 3 5 9 2 6 -4 9 -13 6 -20 -6 -16 31 -27 39
-11 3 8 7 8 11 -1 3 -7 12 -13 20 -13 8 0 11 -7 8 -17 -5 -15 -4 -15 4 -3 6 8
9 17 8 20 -2 3 6 14 17 25 l20 20 -6 -23 c-4 -19 -2 -22 14 -17 10 4 19 2 19
-3 0 -5 7 -9 15 -9 8 0 15 4 15 9 0 4 4 8 10 8 5 0 7 -7 4 -15 -4 -8 -1 -15 6
-15 6 0 8 5 4 12 -5 8 -2 9 11 4 15 -5 16 -4 6 8 -9 10 -9 21 -3 32 6 11 11
13 16 5 4 -6 2 -11 -5 -11 -8 0 -8 -4 2 -16 11 -14 15 -13 32 8 l19 23 -5 -27
c-2 -16 -1 -28 4 -28 4 0 9 10 11 22 3 20 4 21 20 5 9 -9 22 -17 28 -17 6 0 8
-5 4 -12 -4 -7 -3 -8 4 -4 7 4 12 17 13 29 0 12 3 16 6 10 2 -7 9 -13 15 -13
6 0 3 12 -6 28 -17 27 -17 27 8 -2 14 -17 23 -33 20 -38 -3 -4 0 -8 6 -8 6 0
10 7 8 16 -2 10 4 19 12 21 11 3 12 2 2 -4 -10 -7 -8 -14 8 -28 16 -15 23 -16
33 -6 9 10 8 11 -5 6 -13 -5 -18 -2 -18 9 0 9 8 16 20 16 11 0 20 -5 20 -12 0
-6 7 -3 15 8 8 10 15 15 15 9 0 -5 14 -10 30 -11 24 -1 28 1 19 12 -8 10 -8
14 -1 14 6 0 15 -7 20 -16 5 -9 12 -15 15 -15 4 1 7 -2 6 -6 0 -5 -7 -7 -15
-5 -19 4 -18 -4 1 -12 8 -3 26 6 40 20 17 17 25 20 25 10 0 -9 7 -12 20 -9 11
3 18 9 15 13 -2 4 5 7 17 6 12 0 23 -7 26 -14 2 -8 -3 -10 -15 -6 -14 5 -15 4
-3 -4 10 -8 18 -8 27 0 9 7 14 6 18 -4 7 -19 51 -15 74 6 13 12 20 13 29 4 9
-9 12 -8 12 8 1 19 1 19 16 -1 8 -11 12 -25 10 -32 -4 -8 3 -13 17 -13 16 0
18 3 8 9 -7 5 -10 14 -7 20 9 15 46 14 46 -1 0 -6 3 -8 7 -4 5 4 -1 14 -11 22
-19 14 -19 14 1 14 12 0 23 -8 26 -19 2 -10 15 -24 27 -31 17 -9 21 -9 15 0
-5 9 -1 10 14 5 12 -4 28 -2 36 5 8 6 19 9 25 5 5 -3 10 0 10 8 0 10 7 13 19
10 12 -3 17 -11 14 -19 -3 -8 0 -14 6 -14 6 0 11 5 11 12 0 9 3 9 12 0 20 -20
32 -13 14 7 -10 11 -16 26 -13 33 4 9 6 7 6 -4 1 -10 10 -22 21 -28 17 -9 20
-8 20 7 1 15 5 13 26 -10 13 -16 30 -26 37 -24 9 4 9 6 0 6 -7 1 -13 6 -13 12
0 6 9 8 23 4 22 -7 22 -7 2 8 -14 11 -24 12 -33 5 -9 -8 -11 -7 -6 6 8 20 24
20 50 1 27 -21 36 -18 29 8 -3 12 -3 17 2 11 4 -6 16 -13 26 -17 9 -3 17 -12
16 -19 0 -10 -2 -10 -6 0 -2 6 -9 12 -15 12 -6 0 -5 -6 2 -15 12 -14 16 -13
36 5 l22 22 7 -31 c7 -35 20 -41 22 -11 1 11 -4 20 -10 20 -7 0 -6 4 2 9 9 6
22 6 32 0 13 -7 21 -5 28 8 10 18 12 16 15 -9 0 -7 9 -14 20 -16 10 -2 16 0
12 6 -3 5 5 7 19 4 14 -2 25 -8 25 -13 0 -10 32 1 43 15 5 6 5 0 2 -12 -7 -23
-7 -23 19 -7 16 11 26 13 26 6 0 -6 -4 -11 -10 -11 -5 0 -10 -4 -10 -8 0 -4 8
-8 19 -8 12 0 17 6 14 17 -3 12 6 19 36 26 23 6 39 7 36 3 -3 -5 13 -8 36 -7
27 1 44 -3 46 -11 3 -7 -1 -11 -7 -10 -19 4 -23 -19 -5 -26 9 -3 13 -2 10 4
-3 6 -1 10 4 10 6 0 11 6 11 14 0 9 7 12 19 9 10 -2 26 4 36 14 18 17 19 17
12 -1 -7 -18 -6 -18 19 -1 15 9 24 13 21 8 -3 -4 1 -17 9 -28 8 -10 14 -13 14
-7 0 7 7 12 15 12 8 0 15 5 15 12 0 6 2 9 5 6 8 -8 -6 -39 -15 -33 -5 3 -6 -5
-2 -17 5 -22 6 -22 14 4 5 15 19 29 33 32 36 9 39 9 43 -3 2 -7 -4 -9 -15 -5
-14 5 -15 4 -4 -4 17 -12 41 -5 41 13 0 18 73 13 78 -6 3 -11 1 -11 -7 1 -6 8
-11 10 -11 4 0 -19 11 -23 36 -14 22 9 23 8 13 -18 -10 -27 -10 -27 9 -7 13
14 17 25 11 36 -5 9 -6 19 -2 22 8 8 43 -11 43 -24 0 -6 -6 -7 -12 -3 -10 5
-10 3 0 -7 11 -11 14 -12 21 -1 9 16 20 15 40 -1 12 -10 14 -9 8 6 -3 9 -2 17
3 17 5 0 14 -8 19 -17 9 -15 10 -15 11 -2 0 8 -6 21 -12 29 -11 12 -10 12 2 3
19 -13 100 -26 100 -15 0 4 9 8 19 8 11 0 17 -4 15 -8 -3 -4 -12 -8 -20 -8 -8
0 -14 -5 -14 -10 0 -7 -6 -7 -19 0 -11 5 -26 7 -35 4 -20 -8 -28 -32 -13 -40
7 -4 9 -4 5 1 -11 12 12 36 26 28 17 -11 86 -12 86 -1 0 5 -6 6 -12 2 -10 -5
-10 -4 -1 6 10 11 15 11 28 0 12 -10 15 -10 15 0 0 7 7 10 15 6 9 -3 18 1 21
9 4 8 10 12 16 9 5 -3 4 -12 -3 -20 -6 -8 -9 -18 -5 -22 4 -4 13 0 20 10 9 12
16 14 29 7 11 -7 17 -6 17 0 0 15 49 8 61 -9 9 -12 10 -10 6 8 -3 12 -1 20 4
16 5 -3 9 -11 9 -17 0 -7 9 -13 20 -14 18 -2 19 0 5 13 -21 22 -19 24 15 14
17 -5 30 -6 30 -3 0 3 7 0 15 -7 8 -6 19 -9 25 -5 5 3 10 0 10 -7 1 -9 5 -7
14 5 16 21 26 22 26 2 0 -15 10 -19 43 -16 9 1 17 -3 17 -8 0 -6 5 -11 12 -11
9 0 9 3 0 12 -16 16 -16 33 1 21 12 -11 18 -10 72 2 17 3 36 7 43 7 6 1 12 5
12 10 0 4 7 8 16 8 14 0 14 -3 4 -15 -11 -13 -10 -14 4 -9 9 3 16 1 16 -5 0
-6 6 -8 14 -5 8 3 12 13 9 25 -8 28 6 23 17 -7 6 -14 14 -23 20 -19 5 3 6 13
3 22 -5 12 -1 11 14 -4 11 -11 23 -27 26 -34 4 -10 6 -10 6 2 1 19 27 33 36
19 3 -4 -1 -11 -7 -13 -8 -4 -9 -6 -2 -6 6 -1 17 6 24 14 16 19 39 19 46 0 4
-8 14 -15 23 -15 14 1 14 2 -3 15 -10 8 -15 19 -11 26 6 8 10 7 17 -5 5 -9 14
-16 19 -16 6 0 7 5 4 10 -3 6 -1 10 4 10 6 0 11 -3 11 -8 0 -4 8 -12 18 -19
17 -10 18 -8 14 13 -5 26 6 31 27 12 11 -10 13 -10 7 0 -5 7 -1 12 10 12 10 0
14 -3 11 -6 -3 -4 -1 -16 4 -27 6 -11 14 -16 18 -11 3 5 20 14 38 20 l32 12
-16 -24 -16 -25 31 18 c27 15 35 16 53 5 11 -7 24 -11 27 -8 3 3 0 6 -7 6 -7
0 -9 5 -6 10 4 6 11 8 16 5 5 -3 6 1 3 9 -3 9 -1 16 5 16 6 0 11 -4 11 -10 0
-6 9 -6 26 0 34 13 37 13 30 -5 -7 -20 3 -19 26 2 16 14 18 15 18 0 0 -9 -5
-19 -10 -22 -6 -4 -8 -11 -5 -16 10 -15 22 -10 28 12 5 20 7 20 22 5 19 -18
41 -21 50 -6 3 6 11 10 16 10 6 0 7 -4 4 -10 -3 -6 1 -7 9 -4 9 3 16 12 16 20
0 8 5 14 10 14 13 0 13 -6 0 -31 -9 -16 -7 -19 9 -19 10 0 18 6 17 13 0 6 2
12 6 12 4 0 14 9 23 20 15 19 15 19 8 -10 -6 -29 -6 -29 11 -12 15 15 21 15
34 5 12 -10 14 -10 8 0 -4 7 -1 12 8 12 9 0 16 -7 16 -15 0 -8 5 -15 10 -15 6
0 10 4 10 8 0 14 48 33 55 22 4 -6 -4 -10 -15 -10 -16 0 -20 -5 -16 -15 3 -8
1 -15 -4 -15 -6 0 -10 -4 -10 -10 0 -17 18 -11 24 8 7 20 34 25 54 9 19 -15
25 -2 7 16 -19 19 -19 24 -1 24 8 0 14 -5 13 -10 -3 -12 31 -18 39 -6 9 15 24
10 24 -8 0 -16 2 -16 11 -3 8 11 9 8 5 -15 l-6 -30 20 35 c15 27 19 30 20 15
1 -19 2 -19 20 4 11 13 20 18 20 12 0 -6 6 -8 14 -5 7 3 26 -6 41 -20 15 -14
33 -26 39 -25 7 0 7 2 -1 5 -14 6 4 54 20 54 5 0 4 -7 -3 -15 -12 -15 -4 -21
23 -16 5 1 11 -8 14 -19 5 -19 6 -19 19 -3 7 10 14 13 14 6 0 -13 40 -5 40 8
0 5 -3 8 -7 7 -14 -3 -73 14 -73 21 0 8 26 7 50 -2 38 -15 74 -11 66 8 -3 8
-3 15 0 15 3 0 10 -14 16 -31 8 -23 13 -27 19 -17 7 10 12 11 29 0 22 -13 27
-3 8 16 -9 9 0 8 30 -2 23 -8 44 -17 45 -18 2 -2 15 5 30 15 15 10 26 13 25 8
-3 -8 5 -13 15 -10 1 0 14 2 28 3 20 1 25 -2 21 -13 -4 -9 -1 -12 7 -7 6 4 18
2 26 -4 11 -9 15 -9 15 -1 0 6 -4 11 -10 11 -25 0 -7 15 20 16 25 1 28 -1 20
-17 -7 -12 -6 -20 2 -25 7 -4 8 -3 4 4 -4 6 2 17 14 24 11 7 20 19 20 25 0 11
4 11 20 1 11 -7 20 -17 20 -23 0 -13 58 -17 65 -5 8 13 26 13 22 1 -1 -5 3 -8
8 -8 6 1 9 7 7 13 -4 19 15 26 38 14 15 -8 20 -8 20 2 0 9 3 9 10 -2 5 -8 10
-12 10 -7 0 9 62 -22 71 -35 4 -6 9 -6 13 1 4 6 2 11 -3 11 -6 0 -11 4 -11 10
0 11 28 9 48 -3 8 -6 12 -2 13 10 0 16 1 16 9 -2 9 -19 9 -19 16 2 3 13 10 20
15 18 4 -3 6 -12 2 -21 -3 -9 0 -14 8 -12 8 2 13 -3 12 -9 -2 -7 4 -13 13 -13
9 0 14 6 11 13 -3 7 5 13 21 14 15 0 28 6 30 12 3 8 9 8 24 0 15 -8 22 -8 28
1 5 9 14 5 29 -12 13 -12 21 -18 19 -13 -2 6 4 18 12 26 15 17 18 16 77 -15
17 -9 37 -16 45 -15 7 0 3 5 -9 11 -13 6 -23 15 -23 20 0 11 17 10 25 -2 4 -6
10 -8 15 -5 5 3 11 1 15 -5 4 -6 11 -8 16 -4 5 3 7 10 4 15 -4 5 2 6 11 2 11
-4 13 -8 6 -11 -7 -2 -12 -8 -12 -14 0 -5 9 -6 21 -3 13 4 19 3 16 -2 -4 -6 4
-8 18 -5 14 2 25 9 25 14 0 5 5 6 11 2 7 -4 9 0 5 14 -4 11 -3 23 2 26 17 10
20 -32 4 -56 -8 -13 -9 -18 -2 -11 7 6 18 9 25 7 9 -4 11 3 7 21 -3 18 -1 25
9 23 21 -5 37 -22 31 -33 -2 -5 1 -4 9 3 17 16 32 16 23 0 -5 -10 -4 -10 5 -2
14 13 51 7 51 -7 0 -5 5 -9 11 -9 6 0 9 9 6 19 -3 13 -1 18 9 14 7 -2 10 -12
7 -20 -4 -11 -2 -14 5 -9 7 4 12 14 12 22 0 8 7 14 15 14 9 0 12 6 8 18 -5 16
-5 16 8 0 8 -9 23 -19 34 -22 12 -3 8 -4 -7 -2 -16 2 -33 -3 -40 -11 -9 -12
-7 -13 15 -9 15 3 27 0 27 -5 0 -5 -4 -9 -10 -9 -5 0 -10 -5 -10 -12 0 -6 12
-1 26 13 14 13 27 23 30 22 2 -2 5 -2 7 -2 1 1 14 2 29 3 23 2 25 0 15 -13
-10 -12 -9 -14 5 -8 9 3 19 1 22 -6 3 -7 3 -2 0 10 -4 18 -2 22 10 17 9 -3 16
-11 16 -17 0 -5 10 1 23 15 l23 25 17 -24 c15 -19 20 -21 31 -10 11 9 11 15 2
26 -9 12 -8 12 12 0 12 -8 22 -19 22 -26 0 -7 5 -13 10 -13 6 0 10 5 10 11 0
5 4 8 9 5 5 -3 12 1 15 10 5 13 9 14 20 5 10 -9 16 -9 21 -1 5 8 11 8 19 1 7
-6 23 -9 35 -6 17 3 21 0 17 -10 -3 -8 -1 -15 3 -15 5 0 11 6 14 13 3 9 8 9
21 -2 9 -8 19 -11 23 -7 3 3 1 6 -6 6 -7 0 -9 5 -6 10 4 6 13 7 23 2 9 -4 35
-7 57 -5 31 2 44 -2 58 -20 10 -12 16 -17 13 -10 -8 14 3 43 16 43 6 0 8 -10
5 -22 -6 -22 -5 -22 8 -4 8 11 18 17 21 13 4 -4 2 -12 -4 -20 -8 -10 -6 -13 8
-14 11 -1 23 3 26 9 4 7 2 8 -4 4 -7 -4 -12 -3 -12 3 0 5 5 13 10 16 6 4 7 11
4 17 -4 7 -2 8 5 4 7 -5 23 -9 37 -11 29 -3 44 -16 27 -22 -7 -3 -13 -9 -13
-15 0 -7 4 -7 13 0 6 6 31 9 54 8 23 -1 40 1 37 5 -10 17 19 19 31 3 13 -18
14 -18 24 6 7 19 10 21 10 6 1 -12 6 -16 16 -13 8 4 17 2 20 -3 4 -6 11 -10
17 -10 7 0 6 5 -2 15 -6 8 -9 19 -6 24 9 14 36 2 30 -13 -3 -7 2 -19 11 -26
13 -11 15 -10 10 3 -4 8 -2 18 4 22 6 3 11 1 11 -4 0 -6 5 -11 11 -11 6 0 9 7
5 15 -4 11 0 14 17 11 12 -3 26 -5 30 -5 5 -1 5 -6 1 -12 -5 -8 -9 -8 -14 1
-5 9 -9 8 -12 -2 -4 -10 2 -14 22 -13 18 0 26 4 23 13 -3 7 -2 12 3 10 5 -1
19 4 32 11 22 12 23 11 12 -8 -9 -18 -8 -21 10 -21 11 0 20 5 20 11 0 5 5 7
10 4 6 -4 8 -15 5 -26 -5 -14 -3 -17 9 -13 9 3 13 10 10 15 -3 5 -1 9 5 9 5 0
13 -4 16 -10 3 -5 16 -10 28 -10 17 0 19 2 7 9 -8 6 -17 8 -22 5 -4 -2 -12 4
-17 15 -10 18 -9 19 20 11 17 -5 37 -14 44 -20 10 -8 15 -8 21 1 4 8 3 9 -4 5
-7 -4 -12 -3 -12 3 0 13 39 35 48 27 3 -3 0 -6 -6 -6 -7 0 -12 -7 -12 -16 0
-14 2 -15 17 -3 13 11 17 11 21 1 3 -10 7 -10 20 0 13 11 14 10 4 -8 -10 -18
-8 -23 13 -32 15 -7 25 -8 25 -2 0 6 -7 10 -15 10 -21 0 -19 17 5 30 16 9 20
8 20 -5 0 -8 5 -15 10 -15 6 0 10 7 10 15 0 8 5 15 10 15 6 0 10 -4 10 -10 0
-14 34 -12 49 3 10 10 11 9 6 -5 -5 -13 -2 -16 19 -14 13 1 32 8 40 16 13 10
16 10 16 -4 0 -11 5 -14 12 -10 8 5 9 2 5 -9 -3 -10 -2 -17 2 -17 15 0 22 33
9 42 -9 6 -7 8 7 6 12 -2 19 2 17 10 -1 8 2 11 8 7 7 -4 7 -12 0 -25 -16 -30
-12 -34 11 -9 15 17 19 19 15 7 -3 -12 0 -18 9 -18 8 0 15 6 15 13 0 18 76 21
83 3 6 -15 55 -27 63 -15 2 4 12 5 21 2 12 -5 14 -3 8 8 -5 8 2 5 15 -6 13
-11 20 -14 15 -6 -6 11 -4 13 9 8 10 -4 15 -3 11 3 -3 6 -1 10 5 10 6 0 13 -6
15 -13 5 -12 70 -15 82 -3 4 3 15 -1 25 -11 10 -9 21 -13 25 -10 3 4 1 7 -5 7
-7 0 -12 4 -12 10 0 5 7 7 15 4 8 -4 15 -12 15 -19 0 -8 5 -17 12 -21 8 -5 9
-2 5 9 -3 10 -3 17 1 18 49 5 77 18 54 26 -6 3 -10 9 -7 14 4 5 15 0 26 -10
32 -30 59 -33 69 -8 7 17 9 18 9 5 1 -10 9 -18 19 -19 9 0 27 -2 40 -5 14 -2
25 2 28 11 10 24 26 17 20 -7 -3 -13 -3 -18 0 -11 3 7 12 9 21 6 11 -4 14 -2
9 5 -5 8 -2 10 8 6 9 -3 16 -10 16 -15 0 -6 6 -4 14 3 8 7 12 16 9 21 -2 4 1
7 6 7 6 0 11 -7 11 -15 0 -18 11 -19 29 -3 11 11 13 10 8 -3 -4 -13 -1 -15 14
-12 15 4 16 9 8 24 -13 25 6 26 20 2 8 -15 13 -16 30 -6 11 7 21 8 23 3 2 -5
16 -10 31 -12 16 -3 32 -10 37 -17 6 -11 12 -11 26 -1 12 7 13 10 4 7 -10 -3
-16 2 -16 14 0 13 3 15 13 7 7 -6 13 -7 13 -2 0 5 7 -2 16 -14 15 -22 17 -22
34 -7 17 15 19 15 28 -1 7 -12 11 -13 17 -4 4 7 2 16 -5 20 -9 5 -9 9 -1 14
19 12 29 -3 24 -35 -4 -27 -3 -29 10 -18 8 8 12 20 10 26 -3 7 -2 20 1 29 5
14 8 14 21 0 20 -19 19 -27 -2 -19 -15 6 -16 4 -6 -9 7 -8 12 -17 10 -19 -1
-2 3 2 10 9 16 19 19 19 43 -3 l23 -20 -12 22 c-7 14 -8 24 -1 28 6 3 14 -4
19 -17 6 -13 10 -16 11 -8 0 13 1 13 10 0 5 -8 10 -10 10 -5 0 6 5 3 10 -5 8
-13 10 -12 10 4 0 11 3 16 6 13 4 -3 16 0 27 8 18 13 22 12 34 -5 18 -26 39
-25 46 0 3 11 11 20 18 20 10 0 10 -3 1 -12 -18 -18 -15 -33 4 -17 23 19 53
19 47 0 -5 -13 -3 -14 8 -3 18 17 29 15 29 -5 0 -13 3 -15 8 -5 5 7 32 14 60
16 48 2 50 2 41 -18 -9 -20 -9 -20 4 -3 8 10 19 17 23 16 21 -4 35 2 29 11 -8
14 -3 13 34 -6 42 -21 62 -24 85 -12 15 8 16 12 5 19 -33 21 18 8 57 -15 44
-25 58 -21 83 19 11 19 11 19 9 -4 -2 -13 3 -26 11 -29 9 -3 11 1 7 15 -5 14
-1 19 14 19 23 0 25 -7 8 -24 -7 -7 -9 -12 -6 -12 4 0 13 7 22 15 13 13 16 13
31 -2 10 -9 20 -12 23 -7 4 5 17 9 29 8 14 -1 20 3 16 12 -3 8 1 14 10 14 9 0
19 -10 22 -21 5 -16 9 -18 15 -9 4 7 13 9 19 6 6 -4 11 -4 10 1 -1 4 -1 14 0
21 2 19 41 -5 42 -26 0 -11 2 -12 6 -4 4 10 8 10 19 1 17 -14 19 2 2 19 -8 8
-8 12 -1 12 6 0 13 -7 17 -15 3 -9 12 -12 22 -8 12 4 15 3 10 -5 -10 -17 3
-15 20 3 9 8 25 15 38 15 12 0 28 6 35 13 10 10 18 6 42 -21 19 -21 29 -27 29
-17 0 10 5 13 11 9 7 -4 10 -1 7 7 -3 8 -12 13 -22 11 -9 -2 -16 1 -16 7 0 10
14 9 42 -3 15 -7 41 -13 61 -15 5 -1 5 -11 2 -23 -5 -18 -4 -20 4 -8 6 8 11
11 11 6 0 -6 5 -5 12 2 16 16 29 15 22 -2 -3 -8 0 -17 6 -21 6 -3 10 -3 9 2
-5 28 2 34 33 28 25 -6 30 -5 25 8 -7 19 12 27 35 16 12 -7 20 -4 27 8 9 17
11 17 25 -2 9 -13 11 -24 5 -31 -6 -8 -4 -14 5 -17 9 -4 17 2 21 14 4 10 16
24 27 30 11 6 18 7 15 2 -3 -4 2 -15 11 -23 14 -13 15 -12 10 2 -5 12 -2 14
14 10 13 -3 19 -1 15 5 -4 6 0 14 8 17 13 5 13 1 -1 -26 -15 -28 -15 -30 0
-25 9 4 16 1 16 -6 0 -8 4 -6 10 3 9 13 10 13 10 0 0 -12 2 -12 8 -2 10 16 44
4 35 -12 -3 -6 -3 -8 2 -4 4 4 13 18 20 30 6 13 18 22 27 22 11 -1 15 4 11 15
-4 14 -3 14 6 1 5 -8 25 -15 43 -16 43 -1 80 -13 73 -25 -3 -5 1 -6 9 -3 9 3
16 10 16 15 0 5 7 9 15 9 8 0 15 -5 15 -11 0 -5 -4 -7 -10 -4 -5 3 -10 1 -10
-5 0 -7 7 -10 15 -6 8 3 19 -2 24 -12 6 -10 11 -12 11 -4 0 6 7 12 15 12 8 0
15 7 15 16 0 13 5 12 30 -6 27 -19 32 -18 29 8 -1 4 -5 6 -10 5 -5 -2 -9 1 -9
6 0 5 13 11 29 13 26 4 28 2 21 -13 -10 -18 14 -49 27 -35 3 3 1 6 -5 6 -7 0
-12 7 -12 16 0 9 5 12 12 8 23 -15 88 -13 88 2 0 7 9 18 20 24 19 10 20 9 9
-9 -9 -13 -10 -26 -3 -41 l9 -21 24 23 c16 15 26 18 29 10 2 -8 11 -4 23 10
10 13 18 18 19 12 0 -5 -5 -15 -11 -21 -7 -7 -3 -12 16 -17 15 -4 30 -5 33 -1
3 3 0 5 -6 5 -7 0 -12 5 -12 11 0 5 5 7 11 4 6 -4 17 1 25 11 14 18 15 18 9
-3 -5 -18 -3 -22 9 -17 9 3 16 2 16 -3 0 -5 9 -9 20 -10 18 -2 19 0 5 13 -21
21 -19 27 5 14 17 -9 20 -8 20 7 1 14 4 13 15 -7 8 -14 14 -19 15 -12 0 6 5
12 11 12 6 0 9 -7 5 -15 -3 -8 -1 -15 5 -15 5 0 14 11 19 25 5 14 14 25 20 25
6 0 3 -11 -6 -25 -9 -14 -14 -28 -10 -32 3 -3 6 -1 6 6 0 7 8 11 18 10 9 -1
25 1 35 6 11 4 23 3 30 -4 17 -17 27 -13 20 7 -6 14 -4 15 9 4 11 -9 18 -10
23 -2 10 17 25 11 19 -7 -3 -10 1 -7 9 6 8 14 22 26 32 27 16 2 16 1 0 -16
-11 -12 -13 -20 -6 -25 6 -3 11 -1 11 5 0 15 51 4 62 -13 6 -9 8 -9 8 1 0 25
-1 27 -20 24 -11 -2 -20 2 -20 8 0 7 7 10 15 7 8 -4 17 -2 20 3 9 15 25 12 25
-4 0 -18 25 -27 38 -14 6 6 12 6 16 -1 4 -6 2 -11 -4 -11 -6 0 -8 -5 -4 -11 5
-8 9 -8 14 1 6 9 13 9 28 1 16 -9 23 -8 29 3 4 8 15 16 23 18 8 2 18 8 22 13
4 6 8 0 8 -12 0 -12 5 -25 12 -29 6 -4 8 -3 5 4 -9 13 2 42 15 42 6 0 7 -7 4
-16 -5 -13 -2 -15 14 -11 11 3 20 2 20 -3 0 -4 9 -10 20 -13 15 -4 20 -13 20
-39 0 -25 -3 -29 -10 -18 -6 9 -10 10 -10 3 0 -6 5 -15 10 -18 6 -4 11 -90 12
-218 2 -125 5 -30 8 233 3 245 6 1718 8 3275 l2 2829 -26 21 c-18 14 -26 31
-27 55 -2 44 -31 60 -108 60 -45 0 -58 4 -63 18 -19 54 -104 151 -120 135 -3
-3 -6 -2 -6 4 0 13 -31 23 -90 30 -36 4 -57 15 -100 52 -53 47 -55 50 -67 121
-7 40 -15 75 -17 77 -12 12 -26 -12 -26 -45 0 -42 -13 -71 -25 -53 -12 21
-232 179 -560 403 -138 94 -463 326 -530 378 -33 26 -105 82 -160 125 -140
109 -604 455 -720 536 -27 20 -142 101 -255 180 -203 144 -437 308 -660 462
-63 44 -140 99 -170 122 -30 23 -107 80 -170 128 -208 156 -280 217 -597 506
-184 168 -215 199 -312 312 -62 71 -83 103 -134 203 l-20 39 -76 -6 c-163 -12
-411 -110 -592 -233 -154 -104 -272 -207 -541 -471 -147 -145 -272 -263 -279
-263 -7 0 -27 -15 -44 -34 -17 -19 -48 -39 -71 -45 -21 -6 -50 -19 -63 -29
-19 -16 -22 -22 -12 -39 14 -27 1 -39 -319 -303 -176 -146 -286 -253 -433
-425 -152 -178 -263 -286 -319 -313 -24 -11 -50 -31 -57 -45 -34 -64 -241
-204 -421 -286 -52 -24 -108 -49 -125 -57 -48 -22 -81 -22 -77 -1 5 29 -21 19
-70 -27 -43 -40 -62 -49 -240 -106 -106 -34 -206 -66 -223 -71 -276 -82 -510
-172 -759 -295 -65 -32 -92 -41 -97 -32 -4 7 -5 16 -3 20 7 11 2 10 -41 -8
-34 -14 -39 -14 -56 2 -18 16 -19 15 -29 -10 -5 -15 -10 -33 -10 -39 0 -7 -12
4 -27 23 -15 19 -54 61 -87 93 -72 69 -234 152 -361 185 -44 11 -118 30 -165
42 -270 69 -419 131 -526 218 l-60 50 -105 10 c-177 17 -405 81 -664 187 -77
31 -151 63 -165 70 -14 8 -108 54 -210 103 -168 81 -192 89 -261 95 -106 9
-244 61 -340 128 -18 12 -60 22 -124 30 -107 11 -200 41 -299 94 -54 29 -74
35 -127 35 -159 0 -345 74 -496 197 -37 30 -71 48 -111 57 -82 20 -124 37
-237 94 -55 28 -102 47 -105 44 -3 -4 -24 -12 -47 -18 l-43 -11 0 44 c0 38 -4
46 -32 63 -21 13 -51 20 -83 20 -188 0 -427 124 -590 306 -46 51 -86 85 -124
104 -65 32 -157 99 -233 167 -29 26 -83 65 -120 87 -37 21 -96 65 -133 97 -36
32 -78 62 -93 65 -58 13 -100 28 -167 62 -101 50 -149 85 -245 178 -61 60
-100 88 -139 104 -30 11 -85 39 -122 60 -37 22 -72 40 -77 40 -5 0 -18 -12
-27 -27 -10 -16 -51 -62 -90 -103 -53 -55 -83 -97 -113 -160 -78 -163 -180
-296 -306 -400 -41 -33 -84 -77 -97 -97 -130 -221 -266 -356 -444 -445 -66
-33 -95 -57 -166 -132 -131 -139 -296 -238 -448 -269 -44 -9 -73 -23 -115 -57
-79 -64 -167 -115 -249 -146 -40 -15 -85 -36 -102 -48 -30 -20 -125 -96 -135
-107 -7 -8 -227 -170 -280 -206 -125 -85 -396 -231 -495 -266 -229 -82 -313
-107 -445 -130 -190 -34 -558 -166 -759 -273 -64 -33 -80 -33 -81 3 0 24 -29
1 -32 -25 -3 -23 -16 -34 -87 -69 -46 -23 -108 -50 -138 -59 -54 -17 -56 -17
-70 2 -42 58 -78 83 -209 141 -76 33 -179 71 -229 83 -97 24 -244 88 -322 141
-26 18 -81 64 -121 103 -74 71 -156 127 -317 215 -180 98 -209 117 -290 191
-45 41 -103 91 -129 110 -26 19 -64 49 -86 65 -22 17 -60 46 -86 65 -25 19
-63 49 -84 65 -21 17 -59 46 -84 65 -53 40 -121 93 -151 118 -35 29 -132 106
-185 147 -29 22 -82 65 -119 96 -36 30 -105 75 -153 98 -153 75 -290 197 -382
338 -33 51 -81 102 -173 183 -70 62 -132 119 -136 126 -4 8 -54 36 -111 64
-57 28 -132 72 -168 99 -81 61 -188 176 -233 251 -29 47 -49 66 -108 101 -95
56 -238 200 -312 313 -49 75 -65 91 -104 108 -182 78 -251 120 -354 217 -38
36 -91 95 -118 131 -44 60 -55 68 -107 84 -31 10 -87 34 -124 52 -37 19 -75
34 -85 34 -10 0 -42 -13 -72 -28z"/>
</g>
</svg>
