<?xml version="1.0" standalone="no"?>
<!DOCTYPE svg PUBLIC "-//W3C//DTD SVG 20010904//EN"
 "http://www.w3.org/TR/2001/REC-SVG-20010904/DTD/svg10.dtd">
<svg version="1.0" xmlns="http://www.w3.org/2000/svg"
 width="1920.000000pt" height="144.000000pt" viewBox="0 0 1920.000000 144.000000"
 preserveAspectRatio="xMidYMid meet">
<metadata>
Created by potrace 1.16, written by Peter Selinger 2001-2019
</metadata>
<g transform="translate(0.000000,144.000000) scale(0.100000,-0.100000)"
fill="#000000" stroke="none">
<path d="M3880 1282 c-75 -25 -96 -38 -153 -91 -58 -54 -101 -134 -116 -216
-12 -66 -17 -73 -35 -60 -183 139 -357 161 -540 68 -66 -33 -151 -116 -188
-180 -17 -29 -31 -53 -31 -53 -1 0 -29 14 -61 30 -49 25 -71 30 -130 30 -78 0
-154 -28 -191 -69 -16 -19 -26 -21 -65 -16 -25 3 -61 1 -80 -5 -33 -10 -37 -8
-58 19 -17 22 -24 45 -26 88 -5 113 -92 192 -198 180 -42 -5 -56 -2 -88 18
-77 49 -156 68 -262 63 -85 -4 -105 -9 -173 -41 -88 -42 -178 -126 -212 -198
l-21 -44 -103 -1 c-57 -1 -126 -7 -154 -14 -69 -17 -181 -72 -236 -114 l-46
-36 -69 32 c-61 29 -79 33 -151 32 -73 0 -89 -4 -157 -37 -50 -25 -87 -52
-110 -80 -40 -49 -86 -142 -86 -174 0 -37 -10 -50 -34 -46 -12 3 -41 0 -64 -7
l-42 -11 0 -174 0 -175 9600 0 9600 0 0 211 0 211 -22 -5 c-13 -3 -44 -9 -70
-12 -44 -7 -50 -5 -79 24 -43 43 -82 62 -144 68 -50 5 -54 7 -59 38 -20 103
-126 183 -231 172 l-53 -5 -36 73 c-100 202 -330 280 -531 181 -150 -74 -237
-226 -222 -387 l5 -58 -25 10 c-13 5 -57 9 -97 9 -61 0 -83 -5 -134 -31 -55
-27 -132 -98 -132 -121 0 -22 -17 -2 -40 45 -35 73 -133 168 -211 205 -195 92
-415 61 -573 -80 l-56 -50 0 34 c0 46 -44 130 -88 169 -58 52 -115 72 -201 71
-42 0 -88 -5 -102 -10 -26 -10 -27 -10 -34 33 -11 74 -68 175 -134 239 -149
141 -366 172 -554 77 l-78 -39 -24 26 c-14 15 -25 30 -25 34 0 4 -25 26 -55
49 -136 103 -338 105 -475 4 -33 -24 -70 -68 -112 -131 -34 -52 -66 -94 -71
-94 -4 0 -22 8 -40 17 -22 12 -56 17 -112 17 -70 1 -87 -3 -134 -29 -34 -19
-67 -48 -89 -78 -25 -34 -39 -46 -51 -42 -195 76 -385 72 -549 -10 -173 -87
-301 -276 -319 -470 -6 -62 -7 -66 -36 -73 -25 -7 -45 -1 -106 31 -139 70
-278 73 -416 9 l-65 -31 -45 25 c-47 27 -113 35 -176 21 l-36 -7 -17 62 c-65
232 -256 421 -496 487 -100 28 -248 28 -355 1 l-78 -20 -68 65 c-114 107 -195
137 -368 138 -129 0 -203 -18 -296 -72 -149 -86 -258 -248 -281 -418 l-6 -51
-42 19 c-105 48 -230 -6 -266 -115 l-11 -34 -55 33 c-147 89 -336 69 -462 -49
-55 -52 -103 -62 -122 -26 -15 29 -90 69 -142 76 -44 6 -47 9 -64 53 -26 69
-133 172 -209 201 -65 24 -167 31 -242 17 l-43 -9 0 44 c0 68 -27 165 -67 240
-113 215 -327 325 -582 300 -122 -13 -215 -57 -315 -152 l-71 -67 -70 9 c-134
16 -293 -17 -425 -89 -101 -56 -225 -187 -278 -293 -43 -88 -72 -188 -72 -252
0 -28 -4 -38 -16 -38 -9 0 -35 -5 -58 -12 -46 -14 -146 -105 -146 -134 0 -12
-5 -15 -22 -9 -90 27 -97 27 -150 10 -49 -16 -52 -16 -61 2 -38 69 -178 158
-274 171 l-47 7 -28 74 c-60 165 -166 265 -323 306 -107 28 -218 14 -325 -40
-27 -14 -56 -25 -63 -25 -8 0 -28 22 -44 48 -86 139 -271 175 -399 77 -18 -14
-35 -25 -38 -25 -3 0 -20 28 -38 63 -19 35 -64 93 -103 133 -114 115 -257 176
-415 179 -74 1 -93 5 -151 34 -86 42 -194 51 -279 23z"/>
</g>
</svg>
