<svg width="121" height="121" viewBox="0 0 121 121" fill="none" xmlns="http://www.w3.org/2000/svg">
<path d="M80.5 72C80.5 82.7696 71.7696 91.5 61 91.5C50.2304 91.5 41.5 82.7696 41.5 72H36.5C36.5 85.531 47.469 96.5 61 96.5C74.531 96.5 85.5 85.531 85.5 72H80.5ZM118.5 60.5C118.5 92.5325 92.5325 118.5 60.5 118.5C28.4675 118.5 2.5 92.5325 2.5 60.5C2.5 28.4675 28.4675 2.5 60.5 2.5C92.5325 2.5 118.5 28.4675 118.5 60.5ZM42.5 48C42.5 50.1019 41.9743 51.8848 41.2559 53.0603C40.5113 54.2788 39.8183 54.5 39.5 54.5C39.1817 54.5 38.4887 54.2788 37.7441 53.0603C37.0257 51.8848 36.5 50.1019 36.5 48C36.5 45.8981 37.0257 44.1152 37.7441 42.9397C38.4887 41.7212 39.1817 41.5 39.5 41.5C39.8183 41.5 40.5113 41.7212 41.2559 42.9397C41.9743 44.1152 42.5 45.8981 42.5 48ZM39.5 59.5C42.2193 59.5 44.2763 57.7065 45.5223 55.6676C46.7945 53.5858 47.5 50.8686 47.5 48C47.5 45.1314 46.7945 42.4142 45.5223 40.3324C44.2763 38.2935 42.2193 36.5 39.5 36.5C36.7807 36.5 34.7237 38.2935 33.4777 40.3324C32.2055 42.4142 31.5 45.1314 31.5 48C31.5 50.8686 32.2055 53.5858 33.4777 55.6676C34.7237 57.7065 36.7807 59.5 39.5 59.5ZM84.5 48C84.5 50.1019 83.9743 51.8848 83.2559 53.0603C82.5113 54.2788 81.8183 54.5 81.5 54.5C81.1817 54.5 80.4887 54.2788 79.7441 53.0603C79.0257 51.8848 78.5 50.1019 78.5 48C78.5 45.8981 79.0257 44.1152 79.7441 42.9397C80.4887 41.7212 81.1817 41.5 81.5 41.5C81.8183 41.5 82.5113 41.7212 83.2559 42.9397C83.9743 44.1152 84.5 45.8981 84.5 48ZM81.5 59.5C84.2193 59.5 86.2763 57.7065 87.5223 55.6676C88.7945 53.5858 89.5 50.8686 89.5 48C89.5 45.1314 88.7945 42.4142 87.5223 40.3324C86.2763 38.2935 84.2193 36.5 81.5 36.5C78.7807 36.5 76.7237 38.2935 75.4777 40.3324C74.2055 42.4142 73.5 45.1314 73.5 48C73.5 50.8686 74.2055 53.5858 75.4777 55.6676C76.7237 57.7065 78.7807 59.5 81.5 59.5Z" stroke="white" stroke-width="5"/>
</svg>
