<svg width="96" height="153" viewBox="0 0 96 153" fill="none" xmlns="http://www.w3.org/2000/svg">
<path d="M74.5 28.5C74.5 42.8594 62.8594 54.5 48.5 54.5C34.1406 54.5 22.5 42.8594 22.5 28.5C22.5 14.1406 34.1406 2.5 48.5 2.5C62.8594 2.5 74.5 14.1406 74.5 28.5ZM93.5 105C93.5 122.817 83.2588 138.243 68.3417 145.711C71.5769 141.497 73.5 136.223 73.5 130.5C73.5 119.974 66.9949 110.968 57.7855 107.281C61.266 104.534 63.5 100.278 63.5 95.5C63.5 87.2157 56.7843 80.5 48.5 80.5C40.2157 80.5 33.5 87.2157 33.5 95.5C33.5 100.278 35.734 104.534 39.2145 107.281C30.0051 110.968 23.5 119.974 23.5 130.5C23.5 136.577 25.6681 142.147 29.2729 146.48C13.4852 139.341 2.5 123.453 2.5 105C2.5 79.871 22.871 59.5 48 59.5C73.129 59.5 93.5 79.871 93.5 105ZM49.4815 150.476C49.0891 150.489 48.6955 150.496 48.3007 150.499C37.3468 150.392 28.5 141.479 28.5 130.5C28.5 119.454 37.4543 110.5 48.5 110.5C59.5457 110.5 68.5 119.454 68.5 130.5C68.5 141.217 60.0713 149.965 49.4815 150.476ZM58.5 95.5C58.5 101.023 54.0228 105.5 48.5 105.5C42.9772 105.5 38.5 101.023 38.5 95.5C38.5 89.9771 42.9772 85.5 48.5 85.5C54.0228 85.5 58.5 89.9771 58.5 95.5Z" stroke="white" stroke-width="5"/>
</svg>
